<svg width="260" height="60" viewBox="0 0 260 60" fill="none" xmlns="http://www.w3.org/2000/svg">
<g clip-path="url(#clip0_12118_38403)">
<path d="M19.625 41.575C18.95 41.425 18.525 40.925 18.425 40.25V36.125C18.6 35.2 19.125 34.775 19.825 34.65L20.675 34.525C21.15 34.45 21.675 34.375 22.15 34.3C22.2 34.15 22.275 33.975 22.35 33.825C21.95 33.25 21.5 32.725 21.075 32.175C20.45 31.4 20.425 30.725 21.025 29.9C21.15 29.725 21.3 29.55 21.45 29.4L21.9 28.9C22.45 28.35 22.975 27.775 23.625 27.25C24.45 26.65 25.1 26.3 26.2 27.15L26.625 27.5C27 27.8 27.425 28.1 27.8 28.4C27.95 28.35 28.1 28.275 28.25 28.225V28.025C28.35 27.4 28.425 26.775 28.55 26.15L28.625 25.75C28.8 25.025 29.275 24.6 29.875 24.475H30.025L34.1 24.45C34.925 24.525 35.425 25.05 35.55 25.825C35.675 26.625 35.8 27.425 35.9 28.2C36.075 28.275 36.2 28.325 36.35 28.4C36.625 28.175 36.925 27.975 37.2 27.75V12.375C37.2 11.075 36.125 10 34.825 10H6.375C5.075 10 4 11.075 4 12.375V40.9C4 42.2 5.075 43.275 6.375 43.275H21.825C21.95 43.125 22.05 42.975 22.175 42.825L22.375 42.55C22.275 42.35 22.2 42.15 22.125 41.925L19.625 41.575ZM8.75 14.775H32.525V19.5H8.75V14.775Z" fill="#004EEB"/>
<path d="M40.4 41.2002C40.575 40.6002 41.025 40.2502 41.625 40.1752C42.425 40.0752 43.2 39.9502 43.975 39.8252C44 38.7502 44 37.6752 43.975 36.6002C43.1 36.4502 42.325 36.3502 41.575 36.2502C41.025 36.1502 40.625 35.8252 40.45 35.3002C40.35 35.0002 40.3 34.9002 40.25 34.7502L40.125 34.5002C39.725 33.7002 39.875 33.3002 40.325 32.6752L41.675 30.9252C41.675 30.9252 41.45 30.7002 41.275 30.5502L40.575 29.8502C40.15 29.4252 39.725 29.0002 39.3 28.6252L38.775 29.0002C38.325 29.3252 37.85 29.7002 37.425 30.0502C37.375 30.0752 37.35 30.1002 37.3 30.1252C36.875 30.4002 36.35 30.4252 35.9 30.2252C35.6 30.0752 35.45 30.0002 35.325 29.9752C34.85 29.8502 34.25 29.5252 34.125 28.6002C34.025 27.8502 33.9 27.1002 33.8 26.3252H30.55L30.5 26.4752C30.4 27.0752 30.325 27.6502 30.25 28.2502L30.175 28.8002C30.075 29.5502 29.55 29.8252 29.25 29.9002C29 30.0002 28.725 30.1002 28.425 30.2502C28.15 30.4002 27.525 30.5752 26.9 30.0752C26.45 29.7252 25.975 29.3502 25.525 29.0002L25.1 28.6502L25.05 28.6252C25.025 28.6502 24.975 28.6752 24.925 28.7252C24.35 29.1752 23.875 29.6752 23.4 30.2002L22.925 30.7002C22.925 30.7002 22.75 30.8752 22.7 30.9752C23.225 31.6502 23.675 32.2252 24.125 32.8252C24.5 33.3252 24.55 33.9252 24.25 34.5002C24.125 34.7252 24.025 34.9502 23.95 35.2252C23.8 35.7252 23.35 36.1002 22.8 36.1752C22.2 36.2502 21.65 36.3502 21.05 36.4252L20.375 36.5252V39.7502L22.675 40.1002C23.325 40.1752 23.7 40.4502 23.875 40.9752C24 41.3252 24.125 41.6752 24.3 42.0002C24.525 42.4252 24.5 42.9002 24.225 43.3002C24.225 43.3502 24.175 43.4002 24.15 43.4502L23.75 44.0252C23.4 44.4752 23.025 44.9502 22.675 45.4002C23.25 46.0002 23.75 46.4752 24.225 46.9252L24.7 47.4002C24.7 47.4002 24.925 47.6002 25.025 47.7002C25.775 47.1502 26.325 46.7252 26.9 46.2752C27.4 45.9002 28 45.8502 28.575 46.1252C28.75 46.2252 28.925 46.3002 29.1 46.3502C29.45 46.4502 30.1 46.7502 30.225 47.6752C30.325 48.4502 30.425 49.2002 30.575 49.9752H33.8C33.975 49.1502 34.05 48.5002 34.15 47.8002V47.5502C34.25 46.9752 34.575 46.5752 35.125 46.4002C35.375 46.3252 35.65 46.2002 35.925 46.0752C36.425 45.8252 36.975 45.8752 37.4 46.2252L39.3 47.7002L39.475 47.6002C40.275 46.9252 40.975 46.1752 41.65 45.4002C41.675 45.3752 41.7 45.3502 41.725 45.3252C41.7 45.3002 41.675 45.2752 41.65 45.2252C41.175 44.6002 40.675 44.0252 40.225 43.3752C39.875 42.9252 39.85 42.3502 40.125 41.8752C40.25 41.6752 40.325 41.4502 40.425 41.1752L40.4 41.2002ZM32.125 42.4252C29.75 42.4002 27.875 40.5002 27.875 38.1502C27.9 35.7752 29.8 33.9002 32.15 33.9002C34.525 33.9252 36.4 35.8252 36.4 38.1752C36.375 40.5502 34.475 42.4502 32.125 42.4252Z" fill="#444CE7"/>
</g>
<path d="M55.9631 36H52.5881L58.733 18.5455H62.6364L68.7898 36H65.4148L60.7528 22.125H60.6165L55.9631 36ZM56.0739 29.1562H65.2784V31.696H56.0739V29.1562ZM75.4119 36.2301C74.3835 36.2301 73.4631 35.9659 72.6506 35.4375C71.8381 34.9091 71.196 34.142 70.7244 33.1364C70.2528 32.1307 70.017 30.9091 70.017 29.4716C70.017 28.017 70.2557 26.7898 70.733 25.7898C71.2159 24.7841 71.8665 24.0256 72.6847 23.5142C73.5028 22.9972 74.4148 22.7386 75.4205 22.7386C76.1875 22.7386 76.8182 22.8693 77.3125 23.1307C77.8068 23.3864 78.1989 23.696 78.4886 24.0597C78.7784 24.4176 79.0028 24.7557 79.1619 25.0739H79.2898V18.5455H82.3835V36H79.3494V33.9375H79.1619C79.0028 34.2557 78.7727 34.5937 78.4716 34.9517C78.1705 35.304 77.7727 35.6051 77.2784 35.8551C76.7841 36.1051 76.1619 36.2301 75.4119 36.2301ZM76.2727 33.6989C76.9261 33.6989 77.483 33.5227 77.9432 33.1705C78.4034 32.8125 78.7528 32.3153 78.9915 31.679C79.2301 31.0426 79.3494 30.3011 79.3494 29.4545C79.3494 28.608 79.2301 27.8722 78.9915 27.2472C78.7585 26.6222 78.4119 26.1364 77.9517 25.7898C77.4972 25.4432 76.9375 25.2699 76.2727 25.2699C75.5852 25.2699 75.0114 25.4489 74.5511 25.8068C74.0909 26.1648 73.7443 26.6591 73.5114 27.2898C73.2784 27.9205 73.1619 28.642 73.1619 29.4545C73.1619 30.2727 73.2784 31.0028 73.5114 31.6449C73.75 32.2812 74.0994 32.7841 74.5597 33.1534C75.0256 33.517 75.5966 33.6989 76.2727 33.6989ZM85.6712 36V22.9091H88.62V25.1335H88.7734C89.0462 24.3835 89.4979 23.7983 90.1286 23.3778C90.7592 22.9517 91.5121 22.7386 92.3871 22.7386C93.2734 22.7386 94.0206 22.9545 94.6286 23.3864C95.2422 23.8125 95.674 24.3949 95.924 25.1335H96.0604C96.3501 24.4062 96.8388 23.8267 97.5263 23.3949C98.2195 22.9574 99.0405 22.7386 99.9893 22.7386C101.194 22.7386 102.177 23.1193 102.938 23.8807C103.7 24.642 104.08 25.7528 104.08 27.2131V36H100.987V27.6903C100.987 26.8778 100.771 26.2841 100.339 25.9091C99.907 25.5284 99.3786 25.3381 98.7536 25.3381C98.0092 25.3381 97.4268 25.571 97.0064 26.0369C96.5916 26.4972 96.3842 27.0966 96.3842 27.8352V36H93.3587V27.5625C93.3587 26.8864 93.1541 26.3466 92.745 25.9432C92.3416 25.5398 91.8132 25.3381 91.1598 25.3381C90.7166 25.3381 90.3132 25.4517 89.9496 25.679C89.5859 25.9006 89.2962 26.2159 89.0803 26.625C88.8643 27.0284 88.7564 27.5 88.7564 28.0398V36H85.6712ZM107.21 36V22.9091H110.295V36H107.21ZM108.761 21.0511C108.273 21.0511 107.852 20.8892 107.5 20.5653C107.148 20.2358 106.972 19.8409 106.972 19.3807C106.972 18.9148 107.148 18.5199 107.5 18.196C107.852 17.8665 108.273 17.7017 108.761 17.7017C109.256 17.7017 109.676 17.8665 110.023 18.196C110.375 18.5199 110.551 18.9148 110.551 19.3807C110.551 19.8409 110.375 20.2358 110.023 20.5653C109.676 20.8892 109.256 21.0511 108.761 21.0511ZM116.553 28.3295V36H113.468V22.9091H116.417V25.1335H116.57C116.871 24.4006 117.352 23.8182 118.011 23.3864C118.675 22.9545 119.496 22.7386 120.474 22.7386C121.377 22.7386 122.164 22.9318 122.835 23.3182C123.511 23.7045 124.033 24.2642 124.403 24.9972C124.778 25.7301 124.962 26.6193 124.957 27.6648V36H121.871V28.142C121.871 27.267 121.644 26.5824 121.19 26.0881C120.741 25.5937 120.119 25.3466 119.323 25.3466C118.783 25.3466 118.303 25.4659 117.883 25.7045C117.468 25.9375 117.141 26.2756 116.903 26.7188C116.67 27.1619 116.553 27.6989 116.553 28.3295Z" fill="#363F72"/>
<path d="M129.722 36V18.5455H136.403C137.665 18.5455 138.713 18.7443 139.548 19.142C140.389 19.5341 141.017 20.071 141.432 20.7528C141.852 21.4347 142.062 22.2074 142.062 23.071C142.062 23.7812 141.926 24.3892 141.653 24.8949C141.381 25.3949 141.014 25.8011 140.554 26.1136C140.094 26.4261 139.58 26.6506 139.011 26.7869V26.9574C139.631 26.9915 140.224 27.1818 140.793 27.5284C141.366 27.8693 141.835 28.3523 142.199 28.9773C142.563 29.6023 142.744 30.358 142.744 31.2443C142.744 32.1477 142.526 32.9602 142.088 33.6818C141.651 34.3977 140.991 34.9631 140.111 35.3778C139.23 35.7926 138.122 36 136.787 36H129.722ZM132.884 33.358H136.284C137.432 33.358 138.259 33.1392 138.764 32.7017C139.276 32.2585 139.531 31.6903 139.531 30.9972C139.531 30.4801 139.403 30.0142 139.148 29.5994C138.892 29.179 138.528 28.8494 138.057 28.6108C137.585 28.3665 137.023 28.2443 136.369 28.2443H132.884V33.358ZM132.884 25.9688H136.011C136.557 25.9688 137.048 25.8693 137.486 25.6705C137.923 25.4659 138.267 25.179 138.517 24.8097C138.773 24.4347 138.901 23.9915 138.901 23.4801C138.901 22.804 138.662 22.2472 138.185 21.8097C137.713 21.3722 137.011 21.1534 136.08 21.1534H132.884V25.9688ZM149.126 36.2642C148.296 36.2642 147.549 36.1165 146.884 35.821C146.225 35.5199 145.702 35.0767 145.316 34.4915C144.935 33.9062 144.745 33.1847 144.745 32.3267C144.745 31.5881 144.881 30.9773 145.154 30.4943C145.427 30.0114 145.799 29.625 146.271 29.3352C146.742 29.0455 147.273 28.8267 147.864 28.679C148.461 28.5256 149.077 28.4148 149.714 28.3466C150.481 28.267 151.103 28.196 151.58 28.1335C152.058 28.0653 152.404 27.9631 152.62 27.8267C152.842 27.6847 152.952 27.4659 152.952 27.1705V27.1193C152.952 26.4773 152.762 25.9801 152.381 25.6278C152.001 25.2756 151.452 25.0994 150.737 25.0994C149.981 25.0994 149.381 25.2642 148.938 25.5938C148.501 25.9233 148.205 26.3125 148.052 26.7614L145.171 26.3523C145.398 25.5568 145.773 24.892 146.296 24.358C146.819 23.8182 147.458 23.4148 148.214 23.1477C148.969 22.875 149.805 22.7386 150.719 22.7386C151.35 22.7386 151.978 22.8125 152.603 22.9602C153.228 23.108 153.799 23.3523 154.316 23.6932C154.833 24.0284 155.248 24.4858 155.56 25.0653C155.879 25.6449 156.038 26.3693 156.038 27.2386V36H153.072V34.2017H152.969C152.782 34.5653 152.518 34.9062 152.177 35.2244C151.842 35.5369 151.418 35.7898 150.907 35.983C150.401 36.1705 149.808 36.2642 149.126 36.2642ZM149.927 33.9972C150.546 33.9972 151.083 33.875 151.538 33.6307C151.992 33.3807 152.342 33.0511 152.586 32.642C152.836 32.233 152.961 31.7869 152.961 31.304V29.7614C152.864 29.8409 152.7 29.9148 152.467 29.983C152.239 30.0511 151.984 30.1108 151.7 30.1619C151.415 30.2131 151.134 30.2585 150.856 30.2983C150.577 30.3381 150.336 30.3722 150.131 30.4006C149.671 30.4631 149.259 30.5653 148.896 30.7074C148.532 30.8494 148.245 31.0483 148.035 31.304C147.825 31.554 147.719 31.8778 147.719 32.2756C147.719 32.8438 147.927 33.2727 148.342 33.5625C148.756 33.8523 149.285 33.9972 149.927 33.9972ZM159.14 36V22.9091H162.131V25.0909H162.268C162.506 24.3352 162.915 23.7528 163.495 23.3438C164.08 22.929 164.748 22.7216 165.498 22.7216C165.668 22.7216 165.859 22.7301 166.069 22.7472C166.285 22.7585 166.464 22.7784 166.606 22.8068V25.6449C166.475 25.5994 166.268 25.5597 165.984 25.5256C165.705 25.4858 165.435 25.4659 165.174 25.4659C164.612 25.4659 164.106 25.5881 163.657 25.8324C163.214 26.071 162.864 26.4034 162.609 26.8295C162.353 27.2557 162.225 27.7472 162.225 28.304V36H159.14Z" fill="#363F72"/>
<path d="M171.321 36V18.5455H183.491V21.9716H175.54V25.5511H182.869V28.9858H175.54V32.5739H183.491V36H171.321ZM192.585 36H186.134V18.5455H192.577C194.355 18.5455 195.886 18.8949 197.17 19.5938C198.46 20.2869 199.455 21.2869 200.153 22.5938C200.852 23.8949 201.202 25.4517 201.202 27.2642C201.202 29.0824 200.852 30.6449 200.153 31.9517C199.46 33.2585 198.469 34.2614 197.179 34.9602C195.889 35.6534 194.358 36 192.585 36ZM190.352 32.4034H192.423C193.401 32.4034 194.227 32.2386 194.903 31.9091C195.585 31.5739 196.099 31.0312 196.446 30.2812C196.798 29.5256 196.974 28.5199 196.974 27.2642C196.974 26.0085 196.798 25.0085 196.446 24.2642C196.094 23.5142 195.574 22.9744 194.886 22.6449C194.205 22.3097 193.364 22.142 192.364 22.142H190.352V32.4034ZM207.884 18.5455V36H203.665V18.5455H207.884ZM209.961 21.9716V18.5455H224.714V21.9716H219.421V36H215.262V21.9716H209.961ZM242.452 27.2727C242.452 29.1932 242.082 30.821 241.344 32.1562C240.605 33.4915 239.605 34.5057 238.344 35.1989C237.088 35.892 235.679 36.2386 234.116 36.2386C232.548 36.2386 231.136 35.8892 229.881 35.1903C228.625 34.4915 227.628 33.4773 226.889 32.1477C226.156 30.8125 225.79 29.1875 225.79 27.2727C225.79 25.3523 226.156 23.7244 226.889 22.3892C227.628 21.054 228.625 20.0398 229.881 19.3466C231.136 18.6534 232.548 18.3068 234.116 18.3068C235.679 18.3068 237.088 18.6534 238.344 19.3466C239.605 20.0398 240.605 21.054 241.344 22.3892C242.082 23.7244 242.452 25.3523 242.452 27.2727ZM238.139 27.2727C238.139 26.1364 237.977 25.1761 237.653 24.392C237.335 23.608 236.875 23.0142 236.273 22.6108C235.676 22.2074 234.957 22.0057 234.116 22.0057C233.281 22.0057 232.563 22.2074 231.96 22.6108C231.358 23.0142 230.895 23.608 230.571 24.392C230.253 25.1761 230.094 26.1364 230.094 27.2727C230.094 28.4091 230.253 29.3693 230.571 30.1534C230.895 30.9375 231.358 31.5312 231.96 31.9347C232.563 32.3381 233.281 32.5398 234.116 32.5398C234.957 32.5398 235.676 32.3381 236.273 31.9347C236.875 31.5312 237.335 30.9375 237.653 30.1534C237.977 29.3693 238.139 28.4091 238.139 27.2727ZM244.915 36V18.5455H252.125C253.432 18.5455 254.56 18.7812 255.509 19.2528C256.463 19.7187 257.199 20.3892 257.716 21.2642C258.233 22.1335 258.491 23.1648 258.491 24.358C258.491 25.5682 258.227 26.5966 257.699 27.4432C257.17 28.2841 256.42 28.9261 255.449 29.3693C254.477 29.8068 253.327 30.0256 251.997 30.0256H247.438V26.7017H251.213C251.849 26.7017 252.381 26.6193 252.807 26.4545C253.239 26.2841 253.565 26.0284 253.787 25.6875C254.009 25.3409 254.119 24.8977 254.119 24.358C254.119 23.8182 254.009 23.3722 253.787 23.0199C253.565 22.6619 253.239 22.3949 252.807 22.2188C252.375 22.0369 251.844 21.946 251.213 21.946H249.134V36H244.915ZM254.741 28.0227L259.088 36H254.486L250.224 28.0227H254.741Z" fill="#3538CD"/>
<defs>
<clipPath id="clip0_12118_38403">
<rect width="40" height="40" fill="white" transform="translate(4 10)"/>
</clipPath>
</defs>
</svg>
