<svg width="24" height="24" viewBox="0 0 24 24" fill="none" xmlns="http://www.w3.org/2000/svg">
<g clip-path="url(#clip0_12118_38383)">
<path d="M9.8125 17.7875C9.475 17.7125 9.2625 17.4625 9.2125 17.125V15.0625C9.3 14.6 9.5625 14.3875 9.9125 14.325L10.3375 14.2625C10.575 14.225 10.8375 14.1875 11.075 14.15C11.1 14.075 11.1375 13.9875 11.175 13.9125C10.975 13.625 10.75 13.3625 10.5375 13.0875C10.225 12.7 10.2125 12.3625 10.5125 11.95C10.575 11.8625 10.65 11.775 10.725 11.7L10.95 11.45C11.225 11.175 11.4875 10.8875 11.8125 10.625C12.225 10.325 12.55 10.15 13.1 10.575L13.3125 10.75C13.5 10.9 13.7125 11.05 13.9 11.2C13.975 11.175 14.05 11.1375 14.125 11.1125V11.0125C14.175 10.7 14.2125 10.3875 14.275 10.075L14.3125 9.875C14.4 9.5125 14.6375 9.3 14.9375 9.2375H15.0125L17.05 9.225C17.4625 9.2625 17.7125 9.525 17.775 9.9125C17.8375 10.3125 17.9 10.7125 17.95 11.1C18.0375 11.1375 18.1 11.1625 18.175 11.2C18.3125 11.0875 18.4625 10.9875 18.6 10.875V3.1875C18.6 2.5375 18.0625 2 17.4125 2H3.1875C2.5375 2 2 2.5375 2 3.1875V17.45C2 18.1 2.5375 18.6375 3.1875 18.6375H10.9125C10.975 18.5625 11.025 18.4875 11.0875 18.4125L11.1875 18.275C11.1375 18.175 11.1 18.075 11.0625 17.9625L9.8125 17.7875ZM4.375 4.3875H16.2625V6.75H4.375V4.3875Z" fill="#FCFCFD"/>
<path d="M20.2 17.5996C20.2875 17.2996 20.5125 17.1246 20.8125 17.0871C21.2125 17.0371 21.6 16.9746 21.9875 16.9121C22 16.3746 22 15.8371 21.9875 15.2996C21.55 15.2246 21.1625 15.1746 20.7875 15.1246C20.5125 15.0746 20.3125 14.9121 20.225 14.6496C20.175 14.4996 20.15 14.4496 20.125 14.3746L20.0625 14.2496C19.8625 13.8496 19.9375 13.6496 20.1625 13.3371L20.8375 12.4621C20.8375 12.4621 20.725 12.3496 20.6375 12.2746L20.2875 11.9246C20.075 11.7121 19.8625 11.4996 19.65 11.3121L19.3875 11.4996C19.1625 11.6621 18.925 11.8496 18.7125 12.0246C18.6875 12.0371 18.675 12.0496 18.65 12.0621C18.4375 12.1996 18.175 12.2121 17.95 12.1121C17.8 12.0371 17.725 11.9996 17.6625 11.9871C17.425 11.9246 17.125 11.7621 17.0625 11.2996C17.0125 10.9246 16.95 10.5496 16.9 10.1621H15.275L15.25 10.2371C15.2 10.5371 15.1625 10.8246 15.125 11.1246L15.0875 11.3996C15.0375 11.7746 14.775 11.9121 14.625 11.9496C14.5 11.9996 14.3625 12.0496 14.2125 12.1246C14.075 12.1996 13.7625 12.2871 13.45 12.0371C13.225 11.8621 12.9875 11.6746 12.7625 11.4996L12.55 11.3246L12.525 11.3121C12.5125 11.3246 12.4875 11.3371 12.4625 11.3621C12.175 11.5871 11.9375 11.8371 11.7 12.0996L11.4625 12.3496C11.4625 12.3496 11.375 12.4371 11.35 12.4871C11.6125 12.8246 11.8375 13.1121 12.0625 13.4121C12.25 13.6621 12.275 13.9621 12.125 14.2496C12.0625 14.3621 12.0125 14.4746 11.975 14.6121C11.9 14.8621 11.675 15.0496 11.4 15.0871C11.1 15.1246 10.825 15.1746 10.525 15.2121L10.1875 15.2621V16.8746L11.3375 17.0496C11.6625 17.0871 11.85 17.2246 11.9375 17.4871C12 17.6621 12.0625 17.8371 12.15 17.9996C12.2625 18.2121 12.25 18.4496 12.1125 18.6496C12.1125 18.6746 12.0875 18.6996 12.075 18.7246L11.875 19.0121C11.7 19.2371 11.5125 19.4746 11.3375 19.6996C11.625 19.9996 11.875 20.2371 12.1125 20.4621L12.35 20.6996C12.35 20.6996 12.4625 20.7996 12.5125 20.8496C12.8875 20.5746 13.1625 20.3621 13.45 20.1371C13.7 19.9496 14 19.9246 14.2875 20.0621C14.375 20.1121 14.4625 20.1496 14.55 20.1746C14.725 20.2246 15.05 20.3746 15.1125 20.8371C15.1625 21.2246 15.2125 21.5996 15.2875 21.9871H16.9C16.9875 21.5746 17.025 21.2496 17.075 20.8996V20.7746C17.125 20.4871 17.2875 20.2871 17.5625 20.1996C17.6875 20.1621 17.825 20.0996 17.9625 20.0371C18.2125 19.9121 18.4875 19.9371 18.7 20.1121L19.65 20.8496L19.7375 20.7996C20.1375 20.4621 20.4875 20.0871 20.825 19.6996C20.8375 19.6871 20.85 19.6746 20.8625 19.6621C20.85 19.6496 20.8375 19.6371 20.825 19.6121C20.5875 19.2996 20.3375 19.0121 20.1125 18.6871C19.9375 18.4621 19.925 18.1746 20.0625 17.9371C20.125 17.8371 20.1625 17.7246 20.2125 17.5871L20.2 17.5996ZM16.0625 18.2121C14.875 18.1996 13.9375 17.2496 13.9375 16.0746C13.95 14.8871 14.9 13.9496 16.075 13.9496C17.2625 13.9621 18.2 14.9121 18.2 16.0871C18.1875 17.2746 17.2375 18.2246 16.0625 18.2121Z" fill="#FCFCFD"/>
</g>
<defs>
<clipPath id="clip0_12118_38383">
<rect width="20" height="20" fill="white" transform="translate(2 2)"/>
</clipPath>
</defs>
</svg>
