<svg width="40" height="40" viewBox="0 0 40 40" fill="none" xmlns="http://www.w3.org/2000/svg">
<g clip-path="url(#clip0_12127_38399)">
<path d="M15.625 31.575C14.95 31.425 14.525 30.925 14.425 30.25V26.125C14.6 25.2 15.125 24.775 15.825 24.65L16.675 24.525C17.15 24.45 17.675 24.375 18.15 24.3C18.2 24.15 18.275 23.975 18.35 23.825C17.95 23.25 17.5 22.725 17.075 22.175C16.45 21.4 16.425 20.725 17.025 19.9C17.15 19.725 17.3 19.55 17.45 19.4L17.9 18.9C18.45 18.35 18.975 17.775 19.625 17.25C20.45 16.65 21.1 16.3 22.2 17.15L22.625 17.5C23 17.8 23.425 18.1 23.8 18.4C23.95 18.35 24.1 18.275 24.25 18.225V18.025C24.35 17.4 24.425 16.775 24.55 16.15L24.625 15.75C24.8 15.025 25.275 14.6 25.875 14.475H26.025L30.1 14.45C30.925 14.525 31.425 15.05 31.55 15.825C31.675 16.625 31.8 17.425 31.9 18.2C32.075 18.275 32.2 18.325 32.35 18.4C32.625 18.175 32.925 17.975 33.2 17.75V2.375C33.2 1.075 32.125 0 30.825 0H2.375C1.075 0 0 1.075 0 2.375V30.9C0 32.2 1.075 33.275 2.375 33.275H17.825C17.95 33.125 18.05 32.975 18.175 32.825L18.375 32.55C18.275 32.35 18.2 32.15 18.125 31.925L15.625 31.575ZM4.75 4.775H28.525V9.5H4.75V4.775Z" fill="#004EEB"/>
<path d="M36.4 31.2002C36.575 30.6002 37.025 30.2502 37.625 30.1752C38.425 30.0752 39.2 29.9502 39.975 29.8252C40 28.7502 40 27.6752 39.975 26.6002C39.1 26.4502 38.325 26.3502 37.575 26.2502C37.025 26.1502 36.625 25.8252 36.45 25.3002C36.35 25.0002 36.3 24.9002 36.25 24.7502L36.125 24.5002C35.725 23.7002 35.875 23.3002 36.325 22.6752L37.675 20.9252C37.675 20.9252 37.45 20.7002 37.275 20.5502L36.575 19.8502C36.15 19.4252 35.725 19.0002 35.3 18.6252L34.775 19.0002C34.325 19.3252 33.85 19.7002 33.425 20.0502C33.375 20.0752 33.35 20.1002 33.3 20.1252C32.875 20.4002 32.35 20.4252 31.9 20.2252C31.6 20.0752 31.45 20.0002 31.325 19.9752C30.85 19.8502 30.25 19.5252 30.125 18.6002C30.025 17.8502 29.9 17.1002 29.8 16.3252H26.55L26.5 16.4752C26.4 17.0752 26.325 17.6502 26.25 18.2502L26.175 18.8002C26.075 19.5502 25.55 19.8252 25.25 19.9002C25 20.0002 24.725 20.1002 24.425 20.2502C24.15 20.4002 23.525 20.5752 22.9 20.0752C22.45 19.7252 21.975 19.3502 21.525 19.0002L21.1 18.6502L21.05 18.6252C21.025 18.6502 20.975 18.6752 20.925 18.7252C20.35 19.1752 19.875 19.6752 19.4 20.2002L18.925 20.7002C18.925 20.7002 18.75 20.8752 18.7 20.9752C19.225 21.6502 19.675 22.2252 20.125 22.8252C20.5 23.3252 20.55 23.9252 20.25 24.5002C20.125 24.7252 20.025 24.9502 19.95 25.2252C19.8 25.7252 19.35 26.1002 18.8 26.1752C18.2 26.2502 17.65 26.3502 17.05 26.4252L16.375 26.5252V29.7502L18.675 30.1002C19.325 30.1752 19.7 30.4502 19.875 30.9752C20 31.3252 20.125 31.6752 20.3 32.0002C20.525 32.4252 20.5 32.9002 20.225 33.3002C20.225 33.3502 20.175 33.4002 20.15 33.4502L19.75 34.0252C19.4 34.4752 19.025 34.9502 18.675 35.4002C19.25 36.0002 19.75 36.4752 20.225 36.9252L20.7 37.4002C20.7 37.4002 20.925 37.6002 21.025 37.7002C21.775 37.1502 22.325 36.7252 22.9 36.2752C23.4 35.9002 24 35.8502 24.575 36.1252C24.75 36.2252 24.925 36.3002 25.1 36.3502C25.45 36.4502 26.1 36.7502 26.225 37.6752C26.325 38.4502 26.425 39.2002 26.575 39.9752H29.8C29.975 39.1502 30.05 38.5002 30.15 37.8002V37.5502C30.25 36.9752 30.575 36.5752 31.125 36.4002C31.375 36.3252 31.65 36.2002 31.925 36.0752C32.425 35.8252 32.975 35.8752 33.4 36.2252L35.3 37.7002L35.475 37.6002C36.275 36.9252 36.975 36.1752 37.65 35.4002C37.675 35.3752 37.7 35.3502 37.725 35.3252C37.7 35.3002 37.675 35.2752 37.65 35.2252C37.175 34.6002 36.675 34.0252 36.225 33.3752C35.875 32.9252 35.85 32.3502 36.125 31.8752C36.25 31.6752 36.325 31.4502 36.425 31.1752L36.4 31.2002ZM28.125 32.4252C25.75 32.4002 23.875 30.5002 23.875 28.1502C23.9 25.7752 25.8 23.9002 28.15 23.9002C30.525 23.9252 32.4 25.8252 32.4 28.1752C32.375 30.5502 30.475 32.4502 28.125 32.4252Z" fill="#444CE7"/>
</g>
<defs>
<clipPath id="clip0_12127_38399">
<rect width="40" height="40" fill="white"/>
</clipPath>
</defs>
</svg>
