<svg width="80" height="80" xmlns="http://www.w3.org/2000/svg"><defs><linearGradient x1="50.002%" y1="97.007%" x2="50.002%" y2="-.019%" id="a"><stop stop-color="#0062E0" offset="0%"/><stop stop-color="#19AFFF" offset="100%"/></linearGradient></defs><g fill="none"><path d="M33.4 79.6C14.4 76.2 0 59.8 0 40 0 18 18 0 40 0s40 18 40 40c0 19.8-14.4 36.2-33.4 39.6l-2.2-1.8h-8.8l-2.2 1.8z" fill="url(#a)"/><path d="M55.6 51.2L57.4 40H46.8v-7.8c0-3.2 1.2-5.6 6-5.6H58V16.4c-2.8-.4-6-.8-8.8-.8-9.2 0-15.6 5.6-15.6 15.6V40h-10v11.2h10v28.2c2.2.4 4.4.6 6.6.6 2.2 0 4.4-.2 6.6-.6V51.2h8.8z" fill="#FFF"/></g></svg>