<svg width="150" height="150" xmlns="http://www.w3.org/2000/svg"><g fill="none" fill-rule="evenodd"><path d="M0 0H150V150H0z"/><g transform="translate(0 41)" fill-rule="nonzero"><path fill="#FFF" d="M138 40.3145072L119.190877 29.4174972 115.946413 28 39 28.5315615 39 68 138 68z"/><path d="M103.556 64.342c.926-3.173.573-6.081-.971-8.24-1.412-1.984-3.795-3.13-6.663-3.262l-54.314-.705c-.353 0-.662-.176-.839-.44-.176-.265-.22-.618-.132-.97.176-.53.706-.926 1.28-.97l54.8-.705c6.486-.309 13.545-5.553 16.016-11.987l3.133-8.153c.132-.353.176-.705.088-1.058C112.424 11.9 98.173 0 81.141 0 65.434 0 52.11 10.136 47.344 24.194a16.225 16.225 0 0 0-11.252-3.129c-7.545.75-13.59 6.787-14.34 14.323-.176 1.94-.044 3.834.398 5.597C9.84 41.338 0 51.385 0 63.77c0 1.102.088 2.204.22 3.306.089.528.53.925 1.06.925h100.246c.574 0 1.103-.397 1.28-.97l.75-2.688z" fill="#F38020"/><path d="M120.451 29c-.483 0-1.01 0-1.493.044-.35 0-.658.261-.79.61l-2.107 7.277c-.922 3.138-.571 6.014.965 8.15 1.405 1.96 3.776 3.093 6.63 3.224l11.504.697c.351 0 .658.175.834.436.176.262.22.654.132.959-.176.523-.703.915-1.274.959l-11.986.697c-6.498.305-13.48 5.49-15.938 11.853l-.878 2.222c-.176.436.132.872.615.872h41.184a1.08 1.08 0 0 0 1.053-.784A29.578 29.578 0 0 0 150 58.284C150 42.161 136.74 29 120.451 29" fill="#FAAE40"/></g></g></svg>