<svg width="150" height="150" xmlns="http://www.w3.org/2000/svg"><g fill="none" fill-rule="evenodd"><path d="M0 0H150V150H0z"/><path d="M104.563 94.215c-1.8 0-3.6.1-5.2.4l-19.4 30.2c2.3 11.1 11.3 18 25.1 18 9.2 0 16.4-3.1 21.4-8.6l-10.1-9.9c-2.9 2.8-6.3 4.2-9.6 4.2-3.8 0-6.6-1.9-7.9-5.6h30.7c1.1-17.4-8.5-28.7-25-28.7zm5.7 19.7h-11.7c.8-4 2.8-6.7 6.2-6.7 3.4 0 5.7 2.8 5.5 6.7zM19.117 79.632c-8.734-8.507-11.683-6.466-6.693 4.65L34.77 133.17c4.99 11.116 14.745 11.797 21.324 1.701L135.04 16.112c6.693-10.095 5.672-10.89-2.382-1.701L64.034 92.676c-8.053 9.188-21.665 9.642-30.398 1.134l-14.52-14.178z" fill="#16BAC4" fill-rule="nonzero"/></g></svg>