<svg xmlns="http://www.w3.org/2000/svg" viewBox="0 0 48 48" fill="currentColor"><path d="M45 0H3C1.3 0 0 1.3 0 3v42c0 1.7 1.3 3 3 3h42c1.7 0 3-1.3 3-3V3c0-1.7-1.3-3-3-3zm1 45c0 .6-.4 1-1 1H3c-.6 0-1-.4-1-1V3c0-.6.4-1 1-1h42c.6 0 1 .4 1 1v42z" opacity=".5"/><path d="M35 10H13c-1.7 0-3 1.3-3 3v22c0 1.7 1.3 3 3 3h22c1.7 0 3-1.3 3-3V13c0-1.7-1.3-3-3-3zm1 25c0 .5-.4 1-1 1H13c-.6 0-1-.4-1-1V13c0-.6.4-1 1-1h22c.5 0 1 .4 1 1v22zm-3.6-18l1.4 1.4-1.4 1.4-1.4-1.4-1.4 1.4-1.4-1.4 1.4-1.4-1.4-1.4 1.4-1.4 1.4 1.4 1.4-1.4 1.4 1.4-1.4 1.4z"/></svg>