<svg xmlns="http://www.w3.org/2000/svg" viewBox="0 0 48 48"><path fill="currentColor" d="M43 11H31c-.6 0-1-.4-1-1s.4-1 1-1h12c.6 0 1 .4 1 1s-.4 1-1 1zm-15-1c0-.6-.4-1-1-1h-8c-.6 0-1 .4-1 1s.4 1 1 1h8c.6 0 1-.4 1-1zM6 10c0-.6-.4-1-1-1s-1 .4-1 1 .4 1 1 1 1-.4 1-1z" opacity=".5"/><path fill="currentColor" d="M15 11H9c-.6 0-1-.4-1-1s.4-1 1-1h6c.6 0 1 .4 1 1s-.4 1-1 1zm7 7c0-.6-.4-1-1-1H11c-.6 0-1 .4-1 1s.4 1 1 1h10c.6 0 1-.4 1-1zm2 4c0-.6-.4-1-1-1H11c-.6 0-1 .4-1 1s.4 1 1 1h12c.6 0 1-.4 1-1zm-6 4c0-.6-.4-1-1-1h-6c-.6 0-1 .4-1 1s.4 1 1 1h6c.6 0 1-.4 1-1zm4 4c0-.6-.4-1-1-1H11c-.6 0-1 .4-1 1s.4 1 1 1h10c.6 0 1-.4 1-1zm4-15H10c-1.1 0-2 .9-2 2v16c0 1.1.9 2 2 2h16c1.1 0 2-.9 2-2V17c0-1.1-.9-2-2-2m0-2c2.2 0 4 1.8 4 4v16c0 2.2-1.8 4-4 4H10c-2.2 0-4-1.8-4-4V17c0-2.2 1.8-4 4-4h16z"/></svg>