<?xml version="1.0" encoding="UTF-8"?>
<svg width="150px" height="150px" viewBox="0 0 150 150" version="1.1" xmlns="http://www.w3.org/2000/svg" xmlns:xlink="http://www.w3.org/1999/xlink">
    <title>jotform-icon-transparent</title>
    <g id="Integrations" stroke="none" stroke-width="1" fill="none" fill-rule="evenodd">
        <g id="jotform-icon-transparent">
            <rect id="Rectangle" fill="#0A1551" x="0" y="0" width="150" height="150"></rect>
            <g id="Group" transform="translate(35.000000, 31.000000)" fill-rule="nonzero">
                <path d="M23.177349,84.4319395 C24.9340054,86.1154303 23.6926052,89 21.1981196,89 L5.58657936,89 C2.50644888,89 0,86.5981171 0,83.6464388 L0,68.685071 C0,66.2944646 3.01002003,65.1049371 4.76667651,66.7884279 L23.177349,84.4319395 Z" id="Path" fill="#FFFFFF"></path>
                <path d="M45.2644711,85.7355883 C40.9117119,81.3827755 40.911974,74.3257429 45.2644711,69.9731939 L60.9731883,54.2646096 C65.3259475,49.9117968 72.3828681,49.9117968 76.7356272,54.2646096 C81.0881243,58.6171586 81.0881243,65.6741912 76.7356272,70.027004 L61.0269099,85.7355883 C56.6741508,90.0881372 49.6172302,90.0881372 45.2644711,85.7355883 Z" id="Path" fill="#FFB629"></path>
                <path d="M3.34962421,45.7185733 C-1.1165414,41.3433378 -1.1165414,34.2495221 3.34962421,29.8740214 L30.4762897,3.28162553 C34.9424553,-1.09387518 42.1839413,-1.09387518 46.6503758,3.28162553 C51.1165414,7.65686109 51.1165414,14.7506767 46.6503758,19.1261774 L19.5237103,45.7185733 C15.0572758,50.0938089 7.81605873,50.0938089 3.34962421,45.7185733 Z" id="Path" fill="#0099FF"></path>
                <path d="M25.3201992,64.736223 C20.8932669,60.3845203 20.8932669,53.3285962 25.3201992,48.9768935 L61.6487623,13.2639748 C66.0756945,8.9120084 73.2528685,8.9120084 77.6798008,13.2639748 C82.1067331,17.6156775 82.1067331,24.6713379 77.6798008,29.0233043 L41.3509712,64.736223 C36.9243055,69.0879257 29.746865,69.0879257 25.3201992,64.736223 Z" id="Path" fill="#FF6100"></path>
            </g>
        </g>
    </g>
</svg>