<svg width="150" height="150" xmlns="http://www.w3.org/2000/svg"><defs><linearGradient x1="0%" y1="50%" y2="50%" id="a"><stop stop-color="#00B8BA" offset="0%"/><stop stop-color="#00FFED" offset="99.9%"/></linearGradient></defs><g fill="none" fill-rule="evenodd"><path d="M0 0H150V150H0z"/><g transform="translate(7)" fill-rule="nonzero"><path d="M27.659 122.727l-.713-.501C1.456 102.905-7.134 68.488 6.3 39.493 19.732 10.498 51.569-5.267 82.83 1.595c31.263 6.863 53.533 34.505 53.533 66.449v12.677H68.18V55.355h40.84c-5.493-17.61-21.702-29.708-40.183-29.989-18.48-.281-35.052 11.317-41.08 28.753-6.03 17.436-.153 36.764 14.57 47.916l-7.069 9.276-7.6 11.416z" fill="#161637"/><path fill="url(#a)" d="M136.363636 88.1818182L73.7743318 121.239988 49.0909091 105.325991 49.0909091 105.325991 82.0720995 150 136.341149 88.1818182z"/></g></g></svg>