<svg xmlns="http://www.w3.org/2000/svg" preserveAspectRatio="none" viewBox="0 0 1440 180"><path d="M568.61 170c134.21-12.32 255.61-43.42 376.79-75.47-106.32 7.45-209.94 19.05-312 30.32-141.25 15.6-287.54 30.96-438.34 33.95 122.09 16.85 249.47 22.59 373.55 11.2zM945.4 94.53c65.92-4.61 132.87-7.61 201.15-7.92 101.62-.46 199.3 4.98 293.44 14.27V0c-86.23 7.01-170.88 18.66-251.88 35.06-83.2 16.85-162.83 38.37-242.71 59.47zm-750.34 64.28c-67.1-9.26-132.6-21.88-195.06-36.86v32.46c38.42 2.76 77.84 4.37 117.55 4.8 25.84.25 51.72.12 77.51-.4z" fill="currentColor" fill-opacity=".3"/><path d="M1440 180v-79.12c-94.15-9.28-191.82-14.72-293.44-14.27-68.28.31-135.23 3.31-201.15 7.92-121.18 32.05-242.59 63.15-376.8 75.47-124.08 11.38-251.47 5.65-373.55-11.19-25.79.52-51.67.65-77.52.39-39.71-.42-79.12-2.03-117.55-4.79V180H1440z" fill="currentColor"/></svg>