<svg xmlns="http://www.w3.org/2000/svg" preserveAspectRatio="none" viewBox="0 0 1440 180"><path d="M1439.83.29c-27.66-1.42-57.31 2.55-90 9.9-122.37 27.91-157.4 92.33-236.51 129.69C980.06 202.72 864.04 30.97 719.6 30.97c-154.09 0-182.92 189.46-375.04 135.38C207.79 127.49 165.75 62.47 61.94 82.94 45.68 86.24 22.62 90.74 0 96.52V180h1440V.29h-.17z" fill="currentColor" fill-opacity="0.3"/><path d="M1439.94 43.14c-28.95-4.79-63.64-1.57-104.88 6.66-121.66 24.09-147.56 81.44-233.35 113.75-143.8 54.44-238.26-119.73-370.72-119.73-141.13 0-224.07 170.13-380.92 123.7-111.86-33.28-152.54-89.59-254.9-71.8-36.66 6.36-68.54 19.15-95.17 50.05V180h1440V54.01l-.06-10.87z" fill="currentColor"/><path d="M1332.29 26.65c-124.82 28.37-151.19 95.94-239.09 134.07C945.53 224.76 848.83 19.7 713.15 19.7c-144.74 0-229.72 200.63-390.49 145.66-114.42-39.35-156.2-105.54-261.04-84.65C39.32 85.21 18.73 92.3 0 101.45V180h1440V19.02c-30.13-5.65-65.4-1.91-107.71 7.63z" fill="currentColor" fill-opacity="0.3"/></svg>