<?xml version="1.0" encoding="UTF-8"?>
<svg width="150px" height="150px" viewBox="0 0 150 150" version="1.1" xmlns="http://www.w3.org/2000/svg" xmlns:xlink="http://www.w3.org/1999/xlink">
    <title>google spreadsheet</title>
    <defs>
        <path d="M63.125,0 L9.46875001,0 C4.2609375,0 0,4.26477273 0,9.47727273 L0,129.522727 C0,134.735227 4.2609375,139 9.46875001,139 L91.53125,139 C96.7390625,139 101,134.735227 101,129.522727 L101,37.9090909 L63.125,0 Z" id="path-1"></path>
        <path d="M63.125,0 L9.46875001,0 C4.2609375,0 0,4.26477273 0,9.47727273 L0,129.522727 C0,134.735227 4.2609375,139 9.46875001,139 L91.53125,139 C96.7390625,139 101,134.735227 101,129.522727 L101,37.9090909 L63.125,0 Z" id="path-3"></path>
        <path d="M63.125,0 L9.46875001,0 C4.2609375,0 0,4.26477273 0,9.47727273 L0,129.522727 C0,134.735227 4.2609375,139 9.46875001,139 L91.53125,139 C96.7390625,139 101,134.735227 101,129.522727 L101,37.9090909 L63.125,0 Z" id="path-5"></path>
        <linearGradient x1="50.0053945%" y1="8.58610612%" x2="50.0053945%" y2="100.013939%" id="linearGradient-7">
            <stop stop-color="#263238" stop-opacity="0.2" offset="0%"></stop>
            <stop stop-color="#263238" stop-opacity="0.02" offset="100%"></stop>
        </linearGradient>
        <path d="M63.125,0 L9.46875001,0 C4.2609375,0 0,4.26477273 0,9.47727273 L0,129.522727 C0,134.735227 4.2609375,139 9.46875001,139 L91.53125,139 C96.7390625,139 101,134.735227 101,129.522727 L101,37.9090909 L63.125,0 Z" id="path-8"></path>
        <path d="M63.125,0 L9.46875001,0 C4.2609375,0 0,4.26477273 0,9.47727273 L0,129.522727 C0,134.735227 4.2609375,139 9.46875001,139 L91.53125,139 C96.7390625,139 101,134.735227 101,129.522727 L101,37.9090909 L63.125,0 Z" id="path-10"></path>
        <path d="M63.125,0 L9.46875001,0 C4.2609375,0 0,4.26477273 0,9.47727273 L0,129.522727 C0,134.735227 4.2609375,139 9.46875001,139 L91.53125,139 C96.7390625,139 101,134.735227 101,129.522727 L101,37.9090909 L63.125,0 Z" id="path-12"></path>
        <path d="M63.125,0 L9.46875001,0 C4.2609375,0 0,4.26477273 0,9.47727273 L0,129.522727 C0,134.735227 4.2609375,139 9.46875001,139 L91.53125,139 C96.7390625,139 101,134.735227 101,129.522727 L101,37.9090909 L63.125,0 Z" id="path-14"></path>
        <radialGradient cx="3.16804688%" cy="2.7174314%" fx="3.16804688%" fy="2.7174314%" r="161.248516%" gradientTransform="translate(0.031680,0.027174),scale(1.000000,0.726619),translate(-0.031680,-0.027174)" id="radialGradient-16">
            <stop stop-color="#FFFFFF" stop-opacity="0.1" offset="0%"></stop>
            <stop stop-color="#FFFFFF" stop-opacity="0" offset="100%"></stop>
        </radialGradient>
    </defs>
    <g id="Integrations" stroke="none" stroke-width="1" fill="none" fill-rule="evenodd">
        <g id="google-spreadsheet">
            <g id="Group-2" transform="translate(25.000000, 6.000000)">
                <g id="Group" transform="translate(0.000000, 0.000000)">
                    <g id="Path-Clipped">
                        <mask id="mask-2" fill="white">
                            <use xlink:href="#path-1"></use>
                        </mask>
                        <g id="path-1"></g>
                        <path d="M63.125,0 L9.46875001,0 C4.2609375,0 0,4.26477273 0,9.47727273 L0,129.522727 C0,134.735227 4.2609375,139 9.46875001,139 L91.53125,139 C96.7390625,139 101,134.735227 101,129.522727 L101,37.9090909 L78.9062501,22.1136364 L63.125,0 Z" id="Path" fill="#0F9D58" fill-rule="nonzero" mask="url(#mask-2)"></path>
                    </g>
                    <g id="Shape-Clipped">
                        <mask id="mask-4" fill="white">
                            <use xlink:href="#path-3"></use>
                        </mask>
                        <g id="path-3"></g>
                        <path d="M25.2499999,67.9204545 L25.2499999,113.727273 L75.7499999,113.727273 L75.7499999,67.9204545 L25.2499999,67.9204545 Z M47.34375,107.409091 L31.5625001,107.409091 L31.5625001,99.5113637 L47.34375,99.5113637 L47.34375,107.409091 Z M47.34375,94.7727273 L31.5625001,94.7727273 L31.5625001,86.875 L47.34375,86.875 L47.34375,94.7727273 Z M47.34375,82.1363636 L31.5625001,82.1363636 L31.5625001,74.2386365 L47.34375,74.2386365 L47.34375,82.1363636 Z M69.4375001,107.409091 L53.65625,107.409091 L53.65625,99.5113637 L69.4375001,99.5113637 L69.4375001,107.409091 Z M69.4375001,94.7727273 L53.65625,94.7727273 L53.65625,86.875 L69.4375001,86.875 L69.4375001,94.7727273 Z M69.4375001,82.1363636 L53.65625,82.1363636 L53.65625,74.2386365 L69.4375001,74.2386365 L69.4375001,82.1363636 Z" id="Shape" fill="#F1F1F1" fill-rule="nonzero" mask="url(#mask-4)"></path>
                    </g>
                    <g id="Path-Clipped">
                        <mask id="mask-6" fill="white">
                            <use xlink:href="#path-5"></use>
                        </mask>
                        <g id="path-5"></g>
                        <polygon id="Path" fill="url(#linearGradient-7)" fill-rule="nonzero" mask="url(#mask-6)" points="65.8946095 35.1369888 101 70.2660796 101 37.9090909"></polygon>
                    </g>
                    <g id="Group-Clipped">
                        <mask id="mask-9" fill="white">
                            <use xlink:href="#path-8"></use>
                        </mask>
                        <g id="path-8"></g>
                        <g id="Group" mask="url(#mask-9)">
                            <g transform="translate(63.125000, 0.000001)">
                                <path d="M0,0 L0,28.4318181 C0,33.6680114 4.23726563,37.9090909 9.46875001,37.9090909 L37.875,37.9090909 L0,0 Z" id="Path" fill="#87CEAC" fill-rule="nonzero"></path>
                            </g>
                        </g>
                    </g>
                    <g id="Path-Clipped">
                        <mask id="mask-11" fill="white">
                            <use xlink:href="#path-10"></use>
                        </mask>
                        <g id="path-10"></g>
                        <path d="M9.46875001,0 C4.2609375,0 0,4.26477273 0,9.47727273 L0,10.2670455 C0,5.05454546 4.2609375,0.789772728 9.46875001,0.789772728 L63.125,0.789772728 L63.125,0 L9.46875001,0 Z" id="Path" fill-opacity="0.2" fill="#FFFFFF" fill-rule="nonzero" mask="url(#mask-11)"></path>
                    </g>
                    <g id="Path-Clipped">
                        <mask id="mask-13" fill="white">
                            <use xlink:href="#path-12"></use>
                        </mask>
                        <g id="path-12"></g>
                        <path d="M91.53125,138.210227 L9.46875001,138.210227 C4.2609375,138.210227 0,133.945455 0,128.732955 L0,129.522727 C0,134.735227 4.2609375,139 9.46875001,139 L91.53125,139 C96.7390625,139 101,134.735227 101,129.522727 L101,128.732955 C101,133.945455 96.7390625,138.210227 91.53125,138.210227 Z" id="Path" fill-opacity="0.2" fill="#263238" fill-rule="nonzero" mask="url(#mask-13)"></path>
                    </g>
                    <g id="Path-Clipped">
                        <mask id="mask-15" fill="white">
                            <use xlink:href="#path-14"></use>
                        </mask>
                        <g id="path-14"></g>
                        <path d="M72.59375,37.9090909 C67.3622657,37.9090909 63.125,33.6680115 63.125,28.4318182 L63.125,29.221591 C63.125,34.4577841 67.3622657,38.6988637 72.59375,38.6988637 L101,38.6988637 L101,37.9090909 L72.59375,37.9090909 Z" id="Path" fill-opacity="0.1" fill="#263238" fill-rule="nonzero" mask="url(#mask-15)"></path>
                    </g>
                </g>
                <path d="M63.125,0 L9.46875001,0 C4.2609375,0 0,4.26477273 0,9.47727273 L0,129.522727 C0,134.735227 4.2609375,139 9.46875001,139 L91.53125,139 C96.7390625,139 101,134.735227 101,129.522727 L101,37.9090909 L63.125,0 Z" id="Path" fill="url(#radialGradient-16)" fill-rule="nonzero"></path>
            </g>
            <rect id="Rectangle" x="0" y="0" width="150" height="150"></rect>
        </g>
    </g>
</svg>
