<svg width="126" height="111" viewBox="0 0 126 111" fill="none" xmlns="http://www.w3.org/2000/svg">
	<rect x="0.5" y="0.5" width="124.157" height="109.336" rx="4.5" stroke="#E4EBF0"/>
	<path d="M19 19C19 18.4477 19.4477 18 20 18H59.8852C60.4375 18 60.8852 18.4477 60.8852 19V51.7049C60.8852 52.2572 60.4375 52.7049 59.8852 52.7049H20C19.4477 52.7049 19 52.2572 19 51.7049V19Z" fill="#E4EBF0"/>
	<path d="M19 58C19 57.4477 19.4477 57 20 57H59.8852C60.4375 57 60.8852 57.4477 60.8852 58V90.7049C60.8852 91.2572 60.4375 91.7049 59.8852 91.7049H20C19.4477 91.7049 19 91.2572 19 90.7049V58Z" fill="#E4EBF0"/>
	<path d="M66 19C66 18.4477 66.4477 18 67 18H106.885C107.438 18 107.885 18.4477 107.885 19V51.7049C107.885 52.2572 107.438 52.7049 106.885 52.7049H67C66.4477 52.7049 66 52.2572 66 51.7049V19Z" fill="#E4EBF0"/>
	<path d="M66 58C66 57.4477 66.4477 57 67 57H106.885C107.438 57 107.885 57.4477 107.885 58V90.7049C107.885 91.2572 107.438 91.7049 106.885 91.7049H67C66.4477 91.7049 66 91.2572 66 90.7049V58Z" fill="#E4EBF0"/>
	<path d="M37.6672 35C37.6672 33.7114 38.7116 32.6665 40.0003 32.6665C41.2889 32.6665 42.3339 33.7114 42.3339 35C42.3339 36.2886 41.2889 37.3335 40.0003 37.3335C38.7116 37.3335 37.6672 36.2886 37.6672 35ZM36.4057 35C36.4057 36.9852 38.015 38.5944 40.0003 38.5944C41.9856 38.5944 43.5949 36.9852 43.5949 35C43.5949 33.0148 41.9856 31.4056 40.0003 31.4056C38.015 31.4056 36.4057 33.0148 36.4057 35ZM42.8971 31.2631C42.8971 31.7267 43.2731 32.1033 43.7373 32.1033C44.201 32.1033 44.5776 31.7267 44.5776 31.2631C44.5776 30.7994 44.2016 30.4234 43.7373 30.4234C43.2731 30.4234 42.8971 30.7994 42.8971 31.2631ZM37.1719 40.6978C36.4894 40.6667 36.1185 40.5531 35.8719 40.4569C35.5451 40.3297 35.3121 40.1782 35.0667 39.9334C34.8219 39.6885 34.6698 39.4556 34.5431 39.1288C34.447 38.8822 34.3333 38.5113 34.3022 37.8288C34.2683 37.091 34.2615 36.8693 34.2615 35C34.2615 33.1307 34.2689 32.9096 34.3022 32.1712C34.3333 31.4887 34.4476 31.1183 34.5431 30.8712C34.6703 30.5444 34.8219 30.3115 35.0667 30.0661C35.3116 29.8212 35.5445 29.6691 35.8719 29.5425C36.1185 29.4464 36.4894 29.3327 37.1719 29.3016C37.9098 29.2677 38.1315 29.2609 40.0003 29.2609C41.8697 29.2609 42.0908 29.2683 42.8292 29.3016C43.5117 29.3327 43.8821 29.4469 44.1292 29.5425C44.456 29.6691 44.689 29.8212 44.9344 30.0661C45.1792 30.3109 45.3308 30.5444 45.458 30.8712C45.5541 31.1178 45.6678 31.4887 45.6989 32.1712C45.7328 32.9096 45.7396 33.1307 45.7396 35C45.7396 36.8687 45.7328 37.0904 45.6989 37.8288C45.6678 38.5113 45.5536 38.8822 45.458 39.1288C45.3308 39.4556 45.1792 39.6885 44.9344 39.9334C44.6896 40.1782 44.456 40.3297 44.1292 40.4569C43.8827 40.5531 43.5117 40.6667 42.8292 40.6978C42.0913 40.7317 41.8697 40.7385 40.0003 40.7385C38.1315 40.7385 37.9098 40.7317 37.1719 40.6978ZM37.1142 28.0424C36.369 28.0763 35.8601 28.1945 35.415 28.3675C34.9548 28.5462 34.5646 28.7859 34.175 29.175C33.786 29.564 33.5462 29.9541 33.3675 30.4149C33.1945 30.8599 33.0763 31.3688 33.0424 32.1141C33.0079 32.8604 33 33.099 33 35C33 36.901 33.0079 37.1396 33.0424 37.8859C33.0763 38.6312 33.1945 39.1401 33.3675 39.5851C33.5462 40.0453 33.7854 40.436 34.175 40.825C34.564 41.2141 34.9542 41.4532 35.415 41.6325C35.8606 41.8055 36.369 41.9237 37.1142 41.9576C37.8612 41.9915 38.0992 42 40.0003 42C41.9019 42 42.1399 41.9921 42.8863 41.9576C43.6316 41.9237 44.1405 41.8055 44.5855 41.6325C45.0458 41.4532 45.436 41.2141 45.8256 40.825C46.2146 40.436 46.4538 40.0453 46.633 39.5851C46.8061 39.1401 46.9248 38.6312 46.9582 37.8859C46.9921 37.139 47 36.901 47 35C47 33.099 46.9921 32.8604 46.9582 32.1141C46.9242 31.3688 46.8061 30.8599 46.633 30.4149C46.4538 29.9547 46.2146 29.5645 45.8256 29.175C45.4365 28.7859 45.0458 28.5462 44.5861 28.3675C44.1405 28.1945 43.6316 28.0758 42.8869 28.0424C42.1405 28.0085 41.9019 28 40.0008 28C38.0992 28 37.8612 28.0079 37.1142 28.0424Z" fill="white"/>
	<path d="M37.6672 74C37.6672 72.7114 38.7116 71.6665 40.0003 71.6665C41.2889 71.6665 42.3339 72.7114 42.3339 74C42.3339 75.2886 41.2889 76.3335 40.0003 76.3335C38.7116 76.3335 37.6672 75.2886 37.6672 74ZM36.4057 74C36.4057 75.9852 38.015 77.5944 40.0003 77.5944C41.9856 77.5944 43.5949 75.9852 43.5949 74C43.5949 72.0148 41.9856 70.4056 40.0003 70.4056C38.015 70.4056 36.4057 72.0148 36.4057 74ZM42.8971 70.2631C42.8971 70.7267 43.2731 71.1033 43.7373 71.1033C44.201 71.1033 44.5776 70.7267 44.5776 70.2631C44.5776 69.7994 44.2016 69.4234 43.7373 69.4234C43.2731 69.4234 42.8971 69.7994 42.8971 70.2631ZM37.1719 79.6978C36.4894 79.6667 36.1185 79.5531 35.8719 79.4569C35.5451 79.3297 35.3121 79.1782 35.0667 78.9334C34.8219 78.6885 34.6698 78.4556 34.5431 78.1288C34.447 77.8822 34.3333 77.5113 34.3022 76.8288C34.2683 76.091 34.2615 75.8693 34.2615 74C34.2615 72.1307 34.2689 71.9096 34.3022 71.1712C34.3333 70.4887 34.4476 70.1183 34.5431 69.8712C34.6703 69.5444 34.8219 69.3115 35.0667 69.0661C35.3116 68.8212 35.5445 68.6691 35.8719 68.5425C36.1185 68.4464 36.4894 68.3327 37.1719 68.3016C37.9098 68.2677 38.1315 68.2609 40.0003 68.2609C41.8697 68.2609 42.0908 68.2683 42.8292 68.3016C43.5117 68.3327 43.8821 68.4469 44.1292 68.5425C44.456 68.6691 44.689 68.8212 44.9344 69.0661C45.1792 69.3109 45.3308 69.5444 45.458 69.8712C45.5541 70.1178 45.6678 70.4887 45.6989 71.1712C45.7328 71.9096 45.7396 72.1307 45.7396 74C45.7396 75.8687 45.7328 76.0904 45.6989 76.8288C45.6678 77.5113 45.5536 77.8822 45.458 78.1288C45.3308 78.4556 45.1792 78.6885 44.9344 78.9334C44.6896 79.1782 44.456 79.3297 44.1292 79.4569C43.8827 79.5531 43.5117 79.6667 42.8292 79.6978C42.0913 79.7317 41.8697 79.7385 40.0003 79.7385C38.1315 79.7385 37.9098 79.7317 37.1719 79.6978ZM37.1142 67.0424C36.369 67.0763 35.8601 67.1945 35.415 67.3675C34.9548 67.5462 34.5646 67.7859 34.175 68.175C33.786 68.564 33.5462 68.9541 33.3675 69.4149C33.1945 69.8599 33.0763 70.3688 33.0424 71.1141C33.0079 71.8604 33 72.099 33 74C33 75.901 33.0079 76.1396 33.0424 76.8859C33.0763 77.6312 33.1945 78.1401 33.3675 78.5851C33.5462 79.0453 33.7854 79.436 34.175 79.825C34.564 80.2141 34.9542 80.4532 35.415 80.6325C35.8606 80.8055 36.369 80.9237 37.1142 80.9576C37.8612 80.9915 38.0992 81 40.0003 81C41.9019 81 42.1399 80.9921 42.8863 80.9576C43.6316 80.9237 44.1405 80.8055 44.5855 80.6325C45.0458 80.4532 45.436 80.2141 45.8256 79.825C46.2146 79.436 46.4538 79.0453 46.633 78.5851C46.8061 78.1401 46.9248 77.6312 46.9582 76.8859C46.9921 76.139 47 75.901 47 74C47 72.099 46.9921 71.8604 46.9582 71.1141C46.9242 70.3688 46.8061 69.8599 46.633 69.4149C46.4538 68.9547 46.2146 68.5645 45.8256 68.175C45.4365 67.7859 45.0458 67.5462 44.5861 67.3675C44.1405 67.1945 43.6316 67.0758 42.8869 67.0424C42.1405 67.0085 41.9019 67 40.0008 67C38.0992 67 37.8612 67.0079 37.1142 67.0424Z" fill="white"/>
	<path d="M84.6672 35C84.6672 33.7114 85.7116 32.6665 87.0003 32.6665C88.2889 32.6665 89.3339 33.7114 89.3339 35C89.3339 36.2886 88.2889 37.3335 87.0003 37.3335C85.7116 37.3335 84.6672 36.2886 84.6672 35ZM83.4057 35C83.4057 36.9852 85.015 38.5944 87.0003 38.5944C88.9856 38.5944 90.5949 36.9852 90.5949 35C90.5949 33.0148 88.9856 31.4056 87.0003 31.4056C85.015 31.4056 83.4057 33.0148 83.4057 35ZM89.8971 31.2631C89.8971 31.7267 90.2731 32.1033 90.7373 32.1033C91.201 32.1033 91.5776 31.7267 91.5776 31.2631C91.5776 30.7994 91.2016 30.4234 90.7373 30.4234C90.2731 30.4234 89.8971 30.7994 89.8971 31.2631ZM84.1719 40.6978C83.4894 40.6667 83.1185 40.5531 82.8719 40.4569C82.5451 40.3297 82.3121 40.1782 82.0667 39.9334C81.8219 39.6885 81.6698 39.4556 81.5431 39.1288C81.447 38.8822 81.3333 38.5113 81.3022 37.8288C81.2683 37.091 81.2615 36.8693 81.2615 35C81.2615 33.1307 81.2689 32.9096 81.3022 32.1712C81.3333 31.4887 81.4476 31.1183 81.5431 30.8712C81.6703 30.5444 81.8219 30.3115 82.0667 30.0661C82.3116 29.8212 82.5445 29.6691 82.8719 29.5425C83.1185 29.4464 83.4894 29.3327 84.1719 29.3016C84.9098 29.2677 85.1315 29.2609 87.0003 29.2609C88.8697 29.2609 89.0908 29.2683 89.8292 29.3016C90.5117 29.3327 90.8821 29.4469 91.1292 29.5425C91.456 29.6691 91.689 29.8212 91.9344 30.0661C92.1792 30.3109 92.3308 30.5444 92.458 30.8712C92.5541 31.1178 92.6678 31.4887 92.6989 32.1712C92.7328 32.9096 92.7396 33.1307 92.7396 35C92.7396 36.8687 92.7328 37.0904 92.6989 37.8288C92.6678 38.5113 92.5536 38.8822 92.458 39.1288C92.3308 39.4556 92.1792 39.6885 91.9344 39.9334C91.6896 40.1782 91.456 40.3297 91.1292 40.4569C90.8827 40.5531 90.5117 40.6667 89.8292 40.6978C89.0913 40.7317 88.8697 40.7385 87.0003 40.7385C85.1315 40.7385 84.9098 40.7317 84.1719 40.6978ZM84.1142 28.0424C83.369 28.0763 82.8601 28.1945 82.415 28.3675C81.9548 28.5462 81.5646 28.7859 81.175 29.175C80.786 29.564 80.5462 29.9541 80.3675 30.4149C80.1945 30.8599 80.0763 31.3688 80.0424 32.1141C80.0079 32.8604 80 33.099 80 35C80 36.901 80.0079 37.1396 80.0424 37.8859C80.0763 38.6312 80.1945 39.1401 80.3675 39.5851C80.5462 40.0453 80.7854 40.436 81.175 40.825C81.564 41.2141 81.9542 41.4532 82.415 41.6325C82.8606 41.8055 83.369 41.9237 84.1142 41.9576C84.8612 41.9915 85.0992 42 87.0003 42C88.9019 42 89.1399 41.9921 89.8863 41.9576C90.6316 41.9237 91.1405 41.8055 91.5855 41.6325C92.0458 41.4532 92.436 41.2141 92.8256 40.825C93.2146 40.436 93.4538 40.0453 93.633 39.5851C93.8061 39.1401 93.9248 38.6312 93.9582 37.8859C93.9921 37.139 94 36.901 94 35C94 33.099 93.9921 32.8604 93.9582 32.1141C93.9242 31.3688 93.8061 30.8599 93.633 30.4149C93.4538 29.9547 93.2146 29.5645 92.8256 29.175C92.4365 28.7859 92.0458 28.5462 91.5861 28.3675C91.1405 28.1945 90.6316 28.0758 89.8869 28.0424C89.1405 28.0085 88.9019 28 87.0008 28C85.0992 28 84.8612 28.0079 84.1142 28.0424Z" fill="white"/>
	<path d="M84.6672 74C84.6672 72.7114 85.7116 71.6665 87.0003 71.6665C88.2889 71.6665 89.3339 72.7114 89.3339 74C89.3339 75.2886 88.2889 76.3335 87.0003 76.3335C85.7116 76.3335 84.6672 75.2886 84.6672 74ZM83.4057 74C83.4057 75.9852 85.015 77.5944 87.0003 77.5944C88.9856 77.5944 90.5949 75.9852 90.5949 74C90.5949 72.0148 88.9856 70.4056 87.0003 70.4056C85.015 70.4056 83.4057 72.0148 83.4057 74ZM89.8971 70.2631C89.8971 70.7267 90.2731 71.1033 90.7373 71.1033C91.201 71.1033 91.5776 70.7267 91.5776 70.2631C91.5776 69.7994 91.2016 69.4234 90.7373 69.4234C90.2731 69.4234 89.8971 69.7994 89.8971 70.2631ZM84.1719 79.6978C83.4894 79.6667 83.1185 79.5531 82.8719 79.4569C82.5451 79.3297 82.3121 79.1782 82.0667 78.9334C81.8219 78.6885 81.6698 78.4556 81.5431 78.1288C81.447 77.8822 81.3333 77.5113 81.3022 76.8288C81.2683 76.091 81.2615 75.8693 81.2615 74C81.2615 72.1307 81.2689 71.9096 81.3022 71.1712C81.3333 70.4887 81.4476 70.1183 81.5431 69.8712C81.6703 69.5444 81.8219 69.3115 82.0667 69.0661C82.3116 68.8212 82.5445 68.6691 82.8719 68.5425C83.1185 68.4464 83.4894 68.3327 84.1719 68.3016C84.9098 68.2677 85.1315 68.2609 87.0003 68.2609C88.8697 68.2609 89.0908 68.2683 89.8292 68.3016C90.5117 68.3327 90.8821 68.4469 91.1292 68.5425C91.456 68.6691 91.689 68.8212 91.9344 69.0661C92.1792 69.3109 92.3308 69.5444 92.458 69.8712C92.5541 70.1178 92.6678 70.4887 92.6989 71.1712C92.7328 71.9096 92.7396 72.1307 92.7396 74C92.7396 75.8687 92.7328 76.0904 92.6989 76.8288C92.6678 77.5113 92.5536 77.8822 92.458 78.1288C92.3308 78.4556 92.1792 78.6885 91.9344 78.9334C91.6896 79.1782 91.456 79.3297 91.1292 79.4569C90.8827 79.5531 90.5117 79.6667 89.8292 79.6978C89.0913 79.7317 88.8697 79.7385 87.0003 79.7385C85.1315 79.7385 84.9098 79.7317 84.1719 79.6978ZM84.1142 67.0424C83.369 67.0763 82.8601 67.1945 82.415 67.3675C81.9548 67.5462 81.5646 67.7859 81.175 68.175C80.786 68.564 80.5462 68.9541 80.3675 69.4149C80.1945 69.8599 80.0763 70.3688 80.0424 71.1141C80.0079 71.8604 80 72.099 80 74C80 75.901 80.0079 76.1396 80.0424 76.8859C80.0763 77.6312 80.1945 78.1401 80.3675 78.5851C80.5462 79.0453 80.7854 79.436 81.175 79.825C81.564 80.2141 81.9542 80.4532 82.415 80.6325C82.8606 80.8055 83.369 80.9237 84.1142 80.9576C84.8612 80.9915 85.0992 81 87.0003 81C88.9019 81 89.1399 80.9921 89.8863 80.9576C90.6316 80.9237 91.1405 80.8055 91.5855 80.6325C92.0458 80.4532 92.436 80.2141 92.8256 79.825C93.2146 79.436 93.4538 79.0453 93.633 78.5851C93.8061 78.1401 93.9248 77.6312 93.9582 76.8859C93.9921 76.139 94 75.901 94 74C94 72.099 93.9921 71.8604 93.9582 71.1141C93.9242 70.3688 93.8061 69.8599 93.633 69.4149C93.4538 68.9547 93.2146 68.5645 92.8256 68.175C92.4365 67.7859 92.0458 67.5462 91.5861 67.3675C91.1405 67.1945 90.6316 67.0758 89.8869 67.0424C89.1405 67.0085 88.9019 67 87.0008 67C85.0992 67 84.8612 67.0079 84.1142 67.0424Z" fill="white"/>
	<path d="M97.4389 34.108C97.2655 34.0501 97.0858 34.0649 96.9326 34.1496C96.7795 34.2343 96.6714 34.3788 96.6284 34.5565C96.5861 34.7316 96.6121 34.9165 96.7017 35.0785L98.516 38.3576L97.745 38.2445C97.5706 38.2189 97.4004 38.2647 97.2656 38.3737C97.1259 38.4864 97.0421 38.651 97.0299 38.8379C97.0051 39.2109 97.2784 39.5574 97.6391 39.6103L100.452 40.0229C100.955 40.0987 101.449 40.0124 101.881 39.7737C102.541 39.4081 102.946 38.7467 103.039 38.0135C103.108 37.4714 103.007 36.89 102.714 36.3602L101.953 34.9856C101.766 34.6476 101.358 34.514 101.043 34.688C100.891 34.7722 100.784 34.9151 100.74 35.091L100.724 35.0615C100.635 34.8997 100.491 34.7791 100.321 34.7222C100.147 34.6643 99.9676 34.6792 99.8145 34.7639C99.6282 34.8669 99.5166 35.0554 99.4949 35.2621C99.2881 35.102 99.0095 35.0648 98.7802 35.1917C98.6282 35.2758 98.5208 35.4188 98.4771 35.5946L97.8423 34.4473C97.7527 34.2854 97.6095 34.1649 97.4389 34.108Z" fill="#C8D0D7"/>
	<mask id="mask0_112_69" style="mask-type:alpha" maskUnits="userSpaceOnUse" x="66" y="18" width="42" height="35">
		<rect x="66" y="18" width="41.8852" height="34.7049" rx="1" fill="#E4EBF0"/>
	</mask>
	<g mask="url(#mask0_112_69)">
		<path d="M64.3279 47H111.328V53H64.3279V47Z" fill="#C8D0D7"/>
	</g>
	<rect x="74.3279" y="49" width="26" height="1.2" fill="white"/>
</svg>
