<svg width="126" height="112" viewBox="0 0 126 112" fill="none" xmlns="http://www.w3.org/2000/svg">
	<rect x="0.5" y="1.33228" width="124.157" height="109.336" rx="4.5" stroke="#E4EBF0"/>
	<rect x="17.2459" y="22.9019" width="42.3328" height="35.034" rx="1" fill="#C8D0D7"/>
	<g clip-path="url(#clip0_801_90)">
		<path d="M35.8603 37.2257C35.8603 37.7339 35.6584 38.2212 35.2991 38.5805C34.9398 38.9398 34.4525 39.1417 33.9444 39.1417C33.4362 39.1417 32.9489 38.9398 32.5896 38.5805C32.2303 38.2212 32.0284 37.7339 32.0284 37.2257C32.0284 36.7176 32.2303 36.2303 32.5896 35.871C32.9489 35.5117 33.4362 35.3098 33.9444 35.3098C34.4525 35.3098 34.9398 35.5117 35.2991 35.871C35.6584 36.2303 35.8603 36.7176 35.8603 37.2257V37.2257Z" fill="#E4EBF0"/>
		<path d="M30.7512 31.478C30.0736 31.478 29.4239 31.7472 28.9448 32.2262C28.4657 32.7053 28.1966 33.3551 28.1966 34.0326V46.8054C28.1966 47.4829 28.4657 48.1327 28.9448 48.6118C29.4239 49.0908 30.0736 49.36 30.7512 49.36H46.0785C46.7561 49.36 47.4058 49.0908 47.8849 48.6118C48.364 48.1327 48.6331 47.4829 48.6331 46.8054V34.0326C48.6331 33.3551 48.364 32.7053 47.8849 32.2262C47.4058 31.7472 46.7561 31.478 46.0785 31.478H30.7512V31.478ZM46.0785 32.7553C46.4173 32.7553 46.7422 32.8899 46.9817 33.1294C47.2213 33.369 47.3558 33.6938 47.3558 34.0326V42.3349L42.5315 39.8481C42.4118 39.7881 42.2761 39.7672 42.1439 39.7886C42.0116 39.8099 41.8894 39.8722 41.7945 39.9668L37.0558 44.7056L33.6583 42.4422C33.5356 42.3605 33.3884 42.3238 33.2418 42.3383C33.0951 42.3527 32.958 42.4174 32.8536 42.5214L29.4739 45.5281V34.0326C29.4739 33.6938 29.6084 33.369 29.848 33.1294C30.0875 32.8899 30.4124 32.7553 30.7512 32.7553H46.0785Z" fill="#E4EBF0"/>
	</g>
	<rect x="17.2459" y="67.3579" width="42.3328" height="2.9195" fill="#C8D0D7"/>
	<rect x="17.2459" y="72.3792" width="37.3449" height="2.18963" fill="#E4EBF0"/>
	<rect x="17.2459" y="87.6392" width="19.2717" height="1.45975" fill="#E4EBF0"/>
	<rect x="17.2459" y="63.7969" width="10.9481" height="1.45975" fill="#E4EBF0"/>
	<rect x="17.2459" y="76.0273" width="41.1346" height="2.18963" fill="#E4EBF0"/>
	<rect x="65.5787" y="22.9019" width="42.3328" height="35.034" rx="1" fill="#C8D0D7"/>
	<g clip-path="url(#clip1_801_90)">
		<path d="M84.1931 37.2257C84.1931 37.7339 83.9912 38.2212 83.6319 38.5805C83.2726 38.9398 82.7853 39.1417 82.2772 39.1417C81.769 39.1417 81.2817 38.9398 80.9224 38.5805C80.5631 38.2212 80.3613 37.7339 80.3613 37.2257C80.3613 36.7176 80.5631 36.2303 80.9224 35.871C81.2817 35.5117 81.769 35.3098 82.2772 35.3098C82.7853 35.3098 83.2726 35.5117 83.6319 35.871C83.9912 36.2303 84.1931 36.7176 84.1931 37.2257V37.2257Z" fill="#E4EBF0"/>
		<path d="M79.084 31.478C78.4065 31.478 77.7567 31.7472 77.2776 32.2262C76.7985 32.7053 76.5294 33.3551 76.5294 34.0326V46.8054C76.5294 47.4829 76.7985 48.1327 77.2776 48.6118C77.7567 49.0908 78.4065 49.36 79.084 49.36H94.4114C95.0889 49.36 95.7386 49.0908 96.2177 48.6118C96.6968 48.1327 96.9659 47.4829 96.9659 46.8054V34.0326C96.9659 33.3551 96.6968 32.7053 96.2177 32.2262C95.7386 31.7472 95.0889 31.478 94.4114 31.478H79.084V31.478ZM94.4114 32.7553C94.7501 32.7553 95.075 32.8899 95.3145 33.1294C95.5541 33.369 95.6886 33.6938 95.6886 34.0326V42.3349L90.8643 39.8481C90.7446 39.7881 90.6089 39.7672 90.4767 39.7886C90.3444 39.8099 90.2222 39.8722 90.1274 39.9668L85.3886 44.7056L81.9911 42.4422C81.8684 42.3605 81.7213 42.3238 81.5746 42.3383C81.4279 42.3527 81.2908 42.4174 81.1864 42.5214L77.8067 45.5281V34.0326C77.8067 33.6938 77.9413 33.369 78.1808 33.1294C78.4203 32.8899 78.7452 32.7553 79.084 32.7553H94.4114Z" fill="#E4EBF0"/>
	</g>
	<rect x="65.5787" y="67.3579" width="42.3328" height="2.9195" fill="#C8D0D7"/>
	<rect x="65.5787" y="72.3792" width="37.3449" height="2.18963" fill="#E4EBF0"/>
	<rect x="65.5787" y="87.6392" width="19.2717" height="1.45975" fill="#E4EBF0"/>
	<rect x="65.5787" y="63.7969" width="10.9481" height="1.45975" fill="#E4EBF0"/>
	<rect x="65.5787" y="76.0273" width="41.1346" height="2.18963" fill="#E4EBF0"/>
	<defs>
		<clipPath id="clip0_801_90">
			<rect width="20.4365" height="20.4365" fill="white" transform="translate(28.194 30.2007)"/>
		</clipPath>
		<clipPath id="clip1_801_90">
			<rect width="20.4365" height="20.4365" fill="white" transform="translate(76.5268 30.2007)"/>
		</clipPath>
	</defs>
</svg>
