<svg xmlns="http://www.w3.org/2000/svg" viewBox="0 0 48 48"><path fill="currentColor" d="M8 13v22c0 1.7-1.3 3-3 3H0v-2h5c.5 0 1-.4 1-1V13c0-.6-.4-1-1-1H0v-2h5c1.7 0 3 1.3 3 3zm35 25h5v-2h-5c-.5 0-1-.4-1-1V13c0-.5.4-1 1-1h5v-2h-5c-1.7 0-3 1.3-3 3v22c0 1.7 1.3 3 3 3z" opacity=".5"/><path fill="currentColor" d="M35 10H13c-1.7 0-3 1.3-3 3v22c0 1.7 1.3 3 3 3h22c1.7 0 3-1.3 3-3V13c0-1.7-1.3-3-3-3zm1 25c0 .5-.4 1-1 1H13c-.6 0-1-.4-1-1V13c0-.6.4-1 1-1h22c.5 0 1 .4 1 1v22zM16.8 24l2.1 2.1-1.4 1.4-2.1-2.1L14 24l1.4-1.4 2.1-2.1 1.4 1.4-2.1 2.1zm14.3 0L29 21.9l1.4-1.4 2.1 2.1 1.4 1.4-1.4 1.4-2.1 2.1-1.4-1.4 2.1-2.1z"/></svg>