<svg width="127" height="100" viewBox="0 0 127 100" fill="none" xmlns="http://www.w3.org/2000/svg">
<path d="M42.2791 25C41.0204 25 40 26.0204 40 27.2791V51.437C40 52.6957 41.0204 53.7161 42.2791 53.7161H50.0279C51.2865 53.7161 52.3069 52.6957 52.3069 51.437V27.2791C52.3069 26.0204 51.2865 25 50.0279 25H42.2791Z" fill="url(#paint0_linear_1634_39327)"/>
<path d="M76.0092 25C74.7505 25 73.7301 26.0204 73.7301 27.2791V39.586C73.7301 40.8446 74.7505 41.865 76.0092 41.865H83.3022C84.5608 41.865 85.5812 40.8446 85.5812 39.5859V27.2791C85.5812 26.0204 84.5608 25 83.3022 25H76.0092Z" fill="url(#paint1_linear_1634_39327)"/>
<path d="M56.8648 44.1227C56.8648 42.864 57.8851 41.8436 59.1438 41.8436H66.8926C68.1513 41.8436 69.1717 42.864 69.1717 44.1227V56.4296C69.1717 57.6883 68.1513 58.7086 66.8926 58.7086H59.1438C57.8852 58.7086 56.8648 57.6883 56.8648 56.4296V44.1227Z" fill="url(#paint2_linear_1634_39327)"/>
<path d="M42.2791 58.2956C41.0204 58.2956 40 59.3159 40 60.5746V72.8815C40 74.1402 41.0204 75.1606 42.2791 75.1606H50.0278C51.2865 75.1606 52.3069 74.1402 52.3069 72.8815V60.5746C52.3069 59.3159 51.2865 58.2956 50.0278 58.2956H42.2791Z" fill="url(#paint3_linear_1634_39327)"/>
<path d="M73.2744 65.4176C73.2744 64.1589 74.2948 63.1386 75.5535 63.1386H83.3023C84.5609 63.1386 85.5813 64.1589 85.5813 65.4176V77.7245C85.5813 78.9832 84.561 80.0036 83.3023 80.0036H75.5535C74.2948 80.0036 73.2744 78.9832 73.2744 77.7245V65.4176Z" fill="url(#paint4_linear_1634_39327)"/>
<path d="M59.1438 25C57.8851 25 56.8648 26.0204 56.8648 27.2791V34.8759C56.8648 36.1346 57.8852 37.155 59.1438 37.155H66.8926C68.1513 37.155 69.1717 36.1346 69.1717 34.8759V27.2791C69.1717 26.0204 68.1513 25 66.8926 25H59.1438Z" fill="url(#paint5_linear_1634_39327)"/>
<path d="M56.8648 65.5601C56.8648 64.3014 57.8851 63.281 59.1438 63.281H66.8926C68.1513 63.281 69.1717 64.3014 69.1717 65.5601V73.1569C69.1717 74.4156 68.1513 75.436 66.8926 75.436H59.1438C57.8852 75.436 56.8648 74.4156 56.8648 73.1569V65.5601Z" fill="url(#paint6_linear_1634_39327)"/>
<path d="M75.5535 46.4017C74.2948 46.4017 73.2744 47.4221 73.2744 48.6808V56.2777C73.2744 57.5363 74.2948 58.5567 75.5535 58.5567H83.3023C84.561 58.5567 85.5813 57.5363 85.5813 56.2777V48.6808C85.5813 47.4221 84.5609 46.4017 83.3023 46.4017H75.5535Z" fill="url(#paint7_linear_1634_39327)"/>
<defs>
<linearGradient id="paint0_linear_1634_39327" x1="62.7907" y1="25" x2="62.7907" y2="71.0389" gradientUnits="userSpaceOnUse">
<stop stop-color="#9AA6AE"/>
<stop offset="1" stop-color="#9AA6AE" stop-opacity="0"/>
</linearGradient>
<linearGradient id="paint1_linear_1634_39327" x1="62.7907" y1="25" x2="62.7907" y2="71.0389" gradientUnits="userSpaceOnUse">
<stop stop-color="#9AA6AE"/>
<stop offset="1" stop-color="#9AA6AE" stop-opacity="0"/>
</linearGradient>
<linearGradient id="paint2_linear_1634_39327" x1="62.7907" y1="25" x2="62.7907" y2="71.0389" gradientUnits="userSpaceOnUse">
<stop stop-color="#9AA6AE"/>
<stop offset="1" stop-color="#9AA6AE" stop-opacity="0"/>
</linearGradient>
<linearGradient id="paint3_linear_1634_39327" x1="62.7907" y1="25" x2="62.7907" y2="71.0389" gradientUnits="userSpaceOnUse">
<stop stop-color="#9AA6AE"/>
<stop offset="1" stop-color="#9AA6AE" stop-opacity="0"/>
</linearGradient>
<linearGradient id="paint4_linear_1634_39327" x1="62.7907" y1="25" x2="62.7907" y2="71.0389" gradientUnits="userSpaceOnUse">
<stop stop-color="#9AA6AE"/>
<stop offset="1" stop-color="#9AA6AE" stop-opacity="0"/>
</linearGradient>
<linearGradient id="paint5_linear_1634_39327" x1="62.7907" y1="25" x2="62.7907" y2="71.0389" gradientUnits="userSpaceOnUse">
<stop stop-color="#9AA6AE"/>
<stop offset="1" stop-color="#9AA6AE" stop-opacity="0"/>
</linearGradient>
<linearGradient id="paint6_linear_1634_39327" x1="62.7907" y1="25" x2="62.7907" y2="71.0389" gradientUnits="userSpaceOnUse">
<stop stop-color="#9AA6AE"/>
<stop offset="1" stop-color="#9AA6AE" stop-opacity="0"/>
</linearGradient>
<linearGradient id="paint7_linear_1634_39327" x1="62.7907" y1="25" x2="62.7907" y2="71.0389" gradientUnits="userSpaceOnUse">
<stop stop-color="#9AA6AE"/>
<stop offset="1" stop-color="#9AA6AE" stop-opacity="0"/>
</linearGradient>
</defs>
</svg>
