<svg width="127" height="100" viewBox="0 0 127 100" fill="none" xmlns="http://www.w3.org/2000/svg">
<path d="M42 32.4125C42 30.5278 43.5278 29 45.4125 29H56.7875C58.6722 29 60.2 30.5278 60.2 32.4125V43.7875C60.2 45.6722 58.6722 47.2 56.7875 47.2H45.4125C43.5278 47.2 42 45.6722 42 43.7875V32.4125Z" fill="#9AA6AE"/>
<path d="M65.8 32.2667C65.8 30.4625 67.2625 29 69.0667 29H80.7333C82.5375 29 84 30.4625 84 32.2667V43.9333C84 45.7375 82.5375 47.2 80.7333 47.2H69.0667C67.2625 47.2 65.8 45.7375 65.8 43.9333V32.2667Z" fill="#9AA6AE"/>
<path d="M42 56.0667C42 54.2625 43.4625 52.8 45.2667 52.8H56.9333C58.7375 52.8 60.2 54.2625 60.2 56.0667V67.7333C60.2 69.5375 58.7375 71 56.9333 71H45.2667C43.4625 71 42 69.5375 42 67.7333V56.0667Z" fill="#9AA6AE"/>
<path d="M65.8 56.0667C65.8 54.2625 67.2625 52.8 69.0667 52.8H80.7333C82.5375 52.8 84 54.2625 84 56.0667V67.7333C84 69.5375 82.5375 71 80.7333 71H69.0667C67.2625 71 65.8 69.5375 65.8 67.7333V56.0667Z" fill="#9AA6AE"/>
</svg>
