<svg width="127" height="100" viewBox="0 0 127 100" fill="none" xmlns="http://www.w3.org/2000/svg">
<path d="M55 36C55 34.8954 55.8954 34 57 34H66C67.1046 34 68 34.8954 68 36V62C68 63.1046 67.1046 64 66 64H57C55.8954 64 55 63.1046 55 62V36Z" fill="#9AA6AE"/>
<path d="M72 42C72 40.8954 72.8954 40 74 40H83C84.1046 40 85 40.8954 85 42V56C85 57.1046 84.1046 58 83 58H74C72.8954 58 72 57.1046 72 56V42Z" fill="#D2D5D7"/>
<path d="M38 42C38 40.8954 38.8954 40 40 40H49C50.1046 40 51 40.8954 51 42V56C51 57.1046 50.1046 58 49 58H40C38.8954 58 38 57.1046 38 56V42Z" fill="#D2D5D7"/>
<path d="M56 70.5C56 71.3284 55.3284 72 54.5 72C53.6716 72 53 71.3284 53 70.5C53 69.6716 53.6716 69 54.5 69C55.3284 69 56 69.6716 56 70.5Z" fill="#D2D5D7"/>
<path d="M64 70.5C64 71.8807 62.8807 73 61.5 73C60.1193 73 59 71.8807 59 70.5C59 69.1193 60.1193 68 61.5 68C62.8807 68 64 69.1193 64 70.5Z" fill="#9AA6AE"/>
<path d="M70 70.5C70 71.3284 69.3284 72 68.5 72C67.6716 72 67 71.3284 67 70.5C67 69.6716 67.6716 69 68.5 69C69.3284 69 70 69.6716 70 70.5Z" fill="#D2D5D7"/>
</svg>
