<svg width="127" height="100" viewBox="0 0 127 100" fill="none" xmlns="http://www.w3.org/2000/svg">
<path d="M42 32.4125C42 30.5278 43.5278 29 45.4125 29H62.7875C64.6722 29 66.2 30.5278 66.2 32.4125V43.7875C66.2 45.6722 64.6722 47.2 62.7875 47.2H45.4125C43.5278 47.2 42 45.6722 42 43.7875V32.4125Z" fill="#9AA6AE"/>
<path d="M69.8 32.2667C69.8 30.4625 71.2625 29 73.0667 29H80.7333C82.5375 29 84 30.4625 84 32.2667V43.9333C84 45.7375 82.5375 47.2 80.7333 47.2H73.0667C71.2625 47.2 69.8 45.7375 69.8 43.9333V32.2667Z" fill="#9AA6AE"/>
<path d="M59.8 56.0667C59.8 54.2625 61.2625 52.8 63.0667 52.8H80.7333C82.5375 52.8 84 54.2625 84 56.0667V67.7333C84 69.5375 82.5375 71 80.7333 71H63.0667C61.2625 71 59.8 69.5375 59.8 67.7333V56.0667Z" fill="#9AA6AE"/>
<path d="M42 56.2667C42 54.4625 43.4625 53 45.2667 53H52.9333C54.7375 53 56.2 54.4625 56.2 56.2667V67.9333C56.2 69.7375 54.7375 71.2 52.9333 71.2H45.2667C43.4625 71.2 42 69.7375 42 67.9333V56.2667Z" fill="#9AA6AE"/>
</svg>
