<?xml version="1.0" encoding="UTF-8"?>
<svg width="150px" height="150px" viewBox="0 0 150 150" version="1.1" xmlns="http://www.w3.org/2000/svg" xmlns:xlink="http://www.w3.org/1999/xlink">
    <title>mailchimp</title>
    <g id="Integrations" stroke="none" stroke-width="1" fill="none" fill-rule="evenodd">
        <g id="mailchimp">
            <g id="Layer_1" transform="translate(0.000000, 0.002084)">
                <rect id="Rectangle" x="0" y="0" width="150" height="149.964382"></rect>
            </g>
            <g id="Layer_2" transform="translate(4.341703, 0.000000)" fill="#000000" fill-rule="nonzero">
                <path d="M106.306734,70.8602549 C107.33394,70.7311184 108.373279,70.7311184 109.400484,70.8602549 C110.00841,68.9544049 110.065283,66.9156007 109.564547,64.9788393 C108.814547,61.4171852 107.806734,59.2614472 105.720797,59.5894943 C103.634859,59.9175414 103.564547,62.5184861 104.314547,66.0801402 C104.605849,67.8043928 105.28724,69.4393438 106.306734,70.8602549 L106.306734,70.8602549 Z" id="Path"></path>
                <path d="M88.4004844,73.695519 C89.8770469,74.3516131 90.7442344,74.773388 91.1661094,74.398477 C91.5879844,74.0235661 91.3301719,73.7189509 90.9786094,73.1331525 C89.9938588,71.7462248 88.6369983,70.6658679 87.0645469,70.0167052 C83.6671498,68.6190064 79.7870646,69.089477 76.8223594,71.2585978 C75.8379844,71.9849877 74.8770469,72.9925609 75.0176719,73.6017912 C75.0176719,73.7892467 75.2051719,73.9298383 75.5567344,73.9767022 C77.8709509,73.3351191 80.218114,72.8188658 82.5879844,72.4301945 C84.5999248,72.3693839 86.595976,72.8039047 88.4004844,73.695519 L88.4004844,73.695519 Z" id="Path"></path>
                <path d="M85.4004844,75.4060502 C84.0396183,75.5414059 82.7501689,76.0799088 81.6973594,76.9525579 C81.1972164,77.3009699 80.8525275,77.8304881 80.7364219,78.4287698 C80.7307867,78.5656113 80.7919613,78.6966685 80.9004844,78.7802488 C80.9835512,78.8564534 81.0924369,78.8983226 81.2051719,78.8974231 C81.6966441,78.8255025 82.1770287,78.6916566 82.6348594,78.4990656 C84.6307497,77.749736 86.7871369,77.5317262 88.8926719,77.8664034 C89.8770469,77.8664034 90.3223594,78.0304269 90.5332969,77.7023798 C90.7442344,77.3743327 90.6739219,77.3977647 90.5332969,77.0697176 C89.2174258,75.6773915 87.2831685,75.0504525 85.4004844,75.4060502 Z" id="Path"></path>
                <path d="M100.259859,81.6858087 C101.30666,82.3950499 102.727485,82.1462053 103.470797,81.1234423 C103.962984,80.162733 103.259859,78.7802488 101.947359,78.2178824 C100.891621,77.4772764 99.435756,77.728589 98.6895469,78.7802488 C98.2442344,79.6706623 98.9473594,81.0531465 100.259859,81.6858087 Z" id="Path"></path>
                <path d="M108.744234,74.2813173 C107.666109,74.2813173 106.775484,75.4294821 106.752047,76.905694 C106.728609,78.3819059 107.572359,79.5769346 108.650484,79.6003665 C109.728609,79.6237985 110.619234,78.4522017 110.642672,76.9759898 C110.666109,75.4997779 109.822359,74.3047493 108.744234,74.2813173 Z" id="Path"></path>
                <path d="M36.7207969,100.759404 C36.4629844,100.431356 36.0176719,100.525084 35.5957969,100.618812 C35.2688971,100.716329 34.9290983,100.763731 34.5879844,100.759404 C33.8627899,100.78555 33.1740542,100.441264 32.7598594,99.8455581 C32.2429673,98.8544369 32.2429673,97.6733681 32.7598594,96.6822469 L33.1582969,96.0730166 C34.6448623,93.5840838 34.8958068,90.5475105 33.8379844,87.8484075 C32.7820002,85.6386021 30.6863733,84.1068689 28.2598594,83.7712509 C25.9741829,83.4842377 23.6897302,84.3123731 22.1192344,85.9972847 C20.2325799,87.9785645 19.3674935,90.7202372 19.7754844,93.425208 C19.9395469,93.8938467 20.1973594,94.0110064 20.4082969,94.0344383 C20.6192344,94.0578702 21.3926719,93.8001189 21.7676719,92.7925458 L21.7676719,92.4644987 C21.9878639,91.6423747 22.3190326,90.854065 22.7520469,90.1213052 C23.3927909,89.1468863 24.4065728,88.4792162 25.5550035,88.2752962 C26.7034342,88.0713763 27.8851814,88.3491995 28.8223594,89.0434362 C30.4815109,90.1432857 31.1458403,92.2530076 30.4161094,94.1047341 C29.8362966,95.5327416 29.5493689,97.0626592 29.5723594,98.6036656 C29.4472827,100.983422 31.2093266,103.043803 33.5801719,103.290052 C34.8713395,103.407582 36.1169008,102.780405 36.7911094,101.673249 C37.0076068,101.396299 36.9771143,100.999992 36.7207969,100.759404 L36.7207969,100.759404 Z" id="Path"></path>
                <path d="M135.791109,94.9482837 C135.791109,94.7139644 135.298922,93.1674567 134.712984,91.2929019 C134.127047,89.4183472 133.541109,88.0827269 133.541109,88.0827269 C135.284019,85.6388327 136.022282,82.6193859 135.603609,79.6472304 C135.257441,77.356107 134.170907,75.2411607 132.509859,73.6252232 C129.35687,70.956592 125.599508,69.0984671 121.564547,68.2124463 L118.752047,67.4391924 C118.752047,67.3220327 118.611422,60.8548188 118.494234,58.0664185 C118.441901,55.2823534 118.024271,52.517199 117.252047,49.8418095 C116.305904,46.0055625 114.347126,42.4935466 111.580172,39.6723498 C118.611422,32.4787459 122.853609,24.53532 122.853609,17.7400589 C122.830172,4.68847131 106.752047,0.705042416 86.9239219,8.90621956 C86.9239219,8.90621956 82.7754844,10.6870466 82.7286094,10.6870466 C82.6817344,10.6870466 75.1348594,3.2591233 75.0411094,3.14196362 C52.4473594,-16.5408615 -18.1932656,61.9326878 4.40048437,81.0062826 L9.32235937,85.177167 C7.98696471,88.7499903 7.52100908,92.5891955 7.96298437,96.3776318 C8.6531844,101.851759 11.3711042,106.868266 15.5801719,110.436793 C19.6844585,114.166324 24.9892193,116.302687 30.5332969,116.4588 C39.3223594,136.821151 59.4082969,149.240076 82.9395469,149.966466 C108.205172,150.716288 129.392672,138.859729 138.275484,117.583533 C140.059152,113.056303 141.088425,108.267363 141.322359,103.407212 C141.322359,97.4086369 137.947359,94.9482837 135.791109,94.9482837 Z M32.4786094,110.881999 C31.7039226,111.007372 30.919462,111.062272 30.1348594,111.046023 C21.7209458,110.452317 14.8159527,104.159794 13.4473594,95.8386973 C12.5332969,86.8408343 17.1504844,79.9049817 25.2832969,78.2647462 C26.4102364,78.0485006 27.5592652,77.9698187 28.7051719,78.0304269 C33.3926719,78.2647462 39.9786094,81.7795364 41.5254844,91.7146768 C42.8848594,100.501652 40.7286094,109.476083 32.4786094,110.881999 Z M23.9473594,72.8754013 C19.0011316,73.7968817 14.6062117,76.6029136 11.6895469,80.7016675 C9.7684606,79.2271464 8.0157009,77.5455253 6.46298437,75.6872334 C2.10360937,67.3923285 11.2207969,51.2945894 17.5957969,42.1795668 C33.3457969,19.7317734 58.0254844,2.7201888 69.4395469,5.81320418 C71.2911094,6.35213868 77.4317344,13.4754468 77.4317344,13.4754468 C69.6926665,17.9057531 62.3387817,22.9770044 55.4473594,28.6359086 C41.0589923,40.1879236 30.1552828,55.5014023 23.9473594,72.8754013 L23.9473594,72.8754013 Z M104.009859,107.507801 C104.181539,107.429077 104.284869,107.250641 104.267672,107.062594 C104.261965,106.952426 104.210817,106.849557 104.126415,106.778499 C104.042014,106.707441 103.931917,106.674557 103.822359,106.687683 C95.9944273,107.63808 88.0530681,106.83773 80.5723594,104.34449 C81.8145469,100.361061 85.0723594,101.790409 89.9473594,102.188752 C97.6657984,102.663745 105.408849,101.823859 112.845797,99.7049665 C119.004253,97.9558499 124.788104,95.0884405 129.908297,91.2460381 C131.025842,93.8398101 131.813249,96.5635921 132.252047,99.3534875 C133.11406,99.2320599 133.992361,99.3879829 134.759859,99.7986942 C135.837984,100.47822 136.611422,101.837273 136.072359,105.398927 C135.059592,111.833704 132.031618,117.781562 127.423922,122.387079 C124.45313,125.596795 120.917915,128.233678 116.994234,130.166482 C114.81301,131.315101 112.539449,132.279176 110.197359,133.04861 C92.3145469,138.883161 73.9864219,132.462811 68.0098594,118.661402 C67.5286194,117.610477 67.1366136,116.520959 66.8379844,115.404363 C64.2001246,105.964595 66.5791525,95.8318115 73.1426719,88.5513656 L73.1426719,88.5513656 C73.603112,88.1394116 73.8952239,87.5720146 73.9629844,86.957994 C73.9062931,86.3991731 73.6861942,85.8694312 73.3301719,85.4349183 C70.9864219,82.0372877 62.9004844,76.2730318 64.5176719,65.0959989 C65.6895469,57.0822773 72.6973594,51.4117491 79.2598594,51.7632281 L80.9004844,51.7632281 C83.7364219,51.9272517 86.2207969,52.2787307 88.5645469,52.3958903 C92.7928883,52.7653691 96.9851807,51.365442 100.142672,48.5296211 C101.34212,47.2786536 102.882267,46.4069259 104.572359,46.0224041 C105.121718,45.8737188 105.692142,45.818274 106.259859,45.8583806 C107.275955,45.8913989 108.264106,46.1991104 109.119234,46.7487941 C112.447359,49.0919876 112.939547,54.3641729 113.103609,58.3007379 C113.103609,60.5267717 113.478609,65.9629805 113.572359,67.5329202 C113.783297,71.0945742 114.720797,71.5866449 116.619234,72.2193071 C117.673922,72.5707861 118.658297,72.8285374 120.134859,73.2503122 C123.321613,73.8748618 126.302209,75.2842686 128.806734,77.3509008 C129.66427,78.1877436 130.224053,79.282354 130.400484,80.4673481 C130.916109,84.2633215 127.447359,88.9497085 118.259859,93.2143206 C108.626084,97.4338507 98.0728857,99.119703 87.6036094,98.1115949 L84.7207969,97.8772756 C77.9707969,96.9634301 74.1270469,105.68011 78.1817344,111.631821 C80.7832969,115.474659 87.8848594,117.981876 94.9864219,117.981876 C111.252047,117.981876 123.767672,110.952295 128.408297,105.024016 C128.549738,104.864759 128.675331,104.69211 128.783297,104.508513 C129.017672,104.157034 128.783297,103.969579 128.548922,104.157034 C124.728609,106.757979 107.853609,117.091462 89.7832969,113.975015 C88.3518018,113.725286 86.9471185,113.340855 85.5879844,112.82685 C82.9223352,112.104252 80.8749252,109.967155 80.2676719,107.273481 C94.8457969,111.772413 104.009859,107.507801 104.009859,107.507801 Z M53.0332969,42.1795668 C58.2996335,35.9933054 64.65441,30.8233339 71.7832969,26.9253773 C71.8821213,26.8857063 71.9951734,26.910865 72.0678357,26.988699 C72.140498,27.066533 72.1578155,27.1810227 72.1114219,27.2768564 C71.3498453,28.6001848 70.7666645,30.018396 70.3770469,31.4946046 C70.33906,31.5954597 70.3747793,31.7092141 70.4636063,31.7702681 C70.5524332,31.8313221 70.6714601,31.8239305 70.7520469,31.7523559 C75.6754548,28.5355801 81.3044331,26.557866 87.1582969,25.9880999 C87.2658698,25.9835947 87.3649154,26.0463968 87.4066964,26.1456032 C87.4484775,26.2448095 87.4241947,26.3595271 87.3457969,26.4333067 C86.3661706,27.1611798 85.4839727,28.0116687 84.7207969,28.9639557 C84.6514759,29.0338619 84.6332484,29.139631 84.6751729,29.2286993 C84.7170973,29.3177676 84.8102339,29.3711426 84.9082969,29.3622985 C89.682527,29.5122371 94.3613138,30.7377241 98.5957969,32.9473846 C98.8536094,33.0879762 98.5957969,33.5800468 98.3848594,33.509751 C90.2240147,31.6489301 81.748829,31.6489301 73.5879844,33.509751 C66.3553822,35.1433197 59.5095612,38.167499 53.4317344,42.4138862 C53.3496943,42.467634 53.2442548,42.4701837 53.1597115,42.4204642 C53.0751681,42.3707446 53.0261683,42.2773698 53.0332969,42.1795668 L53.0332969,42.1795668 Z" id="Shape"></path>
            </g>
        </g>
    </g>
</svg>