<svg width="80" height="80" xmlns="http://www.w3.org/2000/svg"><g fill="none" fill-rule="evenodd"><g transform="translate(11)" fill="#FFC233"><path d="M19.796 49.101l21.46 9.922c2.66 1.23 4.538 3.295 5.552 5.664 2.565 5.998-.94 12.132-6.442 14.338-5.504 2.205-11.369.786-14.036-5.451l-9.34-21.899c-.723-1.697 1.095-3.365 2.806-2.574zm1.287-6.423l22.153-8.374c7.362-2.783 15.405 2.483 15.296 10.134l-.006.3c-.159 7.452-7.978 12.46-15.179 9.824L21.104 46.42a1.982 1.982 0 0 1-.021-3.742zm-1.24-2.9l21.777-9.254c7.236-3.075 9.073-12.304 3.405-17.637a25.79 25.79 0 0 0-.224-.21C39.245 7.52 30.06 9.338 26.896 16.13l-9.773 20.99c-.78 1.673.983 3.397 2.72 2.659zm-5.605-3.657l7.918-21.71c.981-2.691.8-5.436-.215-7.805C19.37.611 12.41-1.324 6.91.885 1.41 3.095-1.699 8.115.973 14.35l9.401 21.874c.729 1.696 3.233 1.629 3.864-.103z"/></g><path d="M0 0H80V80H0z"/></g></svg>