<?xml version="1.0" encoding="UTF-8"?>
<svg width="80px" height="80px" viewBox="0 0 80 80" version="1.1" xmlns="http://www.w3.org/2000/svg" xmlns:xlink="http://www.w3.org/1999/xlink">
    <title>jetformbuilder</title>
    <g id="Integrations---small" stroke="none" stroke-width="1" fill="none" fill-rule="evenodd">
        <g id="jetformbuilder">
            <rect id="Rectangle" fill="#4272F9" fill-rule="nonzero" x="0" y="0" width="80" height="80" rx="4"></rect>
            <path d="M72.5,23.125 C73.55,23.0625 74.15,24.425 73.45,25.2875 L67.25,33.0125 C66.525,33.9125 65.175,33.3375 65.1875,32.125 L65.225,28.9875 C65.225,28.575 65.0625,28.1875 64.7625,27.9375 L62.5125,26.025 C61.65,25.2875 62.075,23.7625 63.1625,23.6875 L72.5,23.1125 L72.5,23.125 Z M23.125,43.4 C23.125,50.8 17.075,56.7875 9.625,56.7875 C7.7625,56.7875 6.25,55.2875 6.25,53.4375 C6.25,51.5875 7.7625,50.1 9.625,50.1 C13.35,50.1 16.375,47.1 16.375,43.4 L16.375,33.3625 C16.375,31.5125 17.8875,30.0125 19.75,30.0125 C21.6125,30.0125 23.125,31.5125 23.125,33.3625 L23.125,43.4 Z M59.5,43.4 C59.5,47.1 62.525,50.1 66.25,50.1 C68.1125,50.1 69.625,51.5875 69.625,53.4375 C69.625,55.2875 68.1125,56.7875 66.25,56.7875 C58.8,56.7875 52.75,50.8 52.75,43.4 L52.75,33.3625 C52.75,31.5125 54.2625,30.0125 56.125,30.0125 C57.9875,30.0125 59.5,31.5125 59.5,33.3625 L59.5,36.3625 L62.175,36.3625 C64.0375,36.3625 65.5625,37.8625 65.5625,39.725 C65.5625,41.5875 64.05,43.0875 62.175,43.0875 L59.5,43.0875 L59.5,43.4125 L59.5,43.4 Z M50.8125,38.7125 C50.8125,38.7125 50.825,38.7125 50.825,38.7125 C49.7625,35.9375 47.775,33.5125 45,31.9125 C38.5625,28.2 30.3375,30.4 26.6375,36.8125 C22.925,43.2125 25.125,51.4 31.5625,55.1 C36.3,57.825 42,57.35 46.1625,54.35 L46.1375,54.3125 C47.1,53.725 47.725,52.675 47.725,51.475 C47.725,49.625 46.2125,48.1375 44.3625,48.1375 C43.4625,48.1375 42.6375,48.4875 42.0375,49.0625 C40.0125,50.4125 37.325,50.625 35.0625,49.3875 L48.65,43.125 C49.4375,42.8875 50.1375,42.3625 50.575,41.6 C51.1,40.6875 51.1625,39.65 50.8,38.7375 L50.8125,38.7125 Z M41.6375,37.6875 C42.0375,37.9125 42.4,38.175 42.7375,38.475 L31.55,43.6125 C31.525,42.425 31.8125,41.2375 32.45,40.1375 C34.3125,36.9375 38.4125,35.85 41.6375,37.6875 Z" id="Shape" fill="#FFFFFF"></path>
        </g>
    </g>
</svg>