<svg width="80" height="80" xmlns="http://www.w3.org/2000/svg"><defs><radialGradient cx="82.928%" cy="-23.874%" fx="82.928%" fy="-23.874%" r="162.535%" gradientTransform="matrix(.7037 0 0 1 .246 0)" id="a"><stop stop-color="#F024F6" offset="20%"/><stop stop-color="#C416F8" offset="39%"/><stop stop-color="#9406F9" offset="61%"/><stop stop-color="#8200FA" offset="72%"/></radialGradient></defs><g fill="none" fill-rule="evenodd"><path d="M30.759 62.71l11.81-49.05a1.81 1.81 0 0 1 2.185-1.333l14.066 3.36a1.803 1.803 0 0 1 1.337 2.176l-11.81 49.05a1.81 1.81 0 0 1-2.185 1.333l-14.066-3.36a1.81 1.81 0 0 1-1.337-2.176zM63.72 67.93h14.47c1 0 1.81-.806 1.81-1.798V15.69c0-.996-.81-1.802-1.806-1.802h-14.47c-1 0-1.81.806-1.81 1.798v50.442c0 .996.81 1.802 1.806 1.802zM1.011 60.748l13.007 6.321a1.81 1.81 0 0 0 2.415-.829l22.21-45.331a1.797 1.797 0 0 0-.833-2.406l-13.007-6.32a1.81 1.81 0 0 0-2.415.829L.186 58.336a1.797 1.797 0 0 0 .829 2.412H1.01z" fill="url(#a)" fill-rule="nonzero"/><path d="M0 0H80V80H0z"/></g></svg>