<svg width="18" height="18" viewBox="0 0 18 18" fill="none" xmlns="http://www.w3.org/2000/svg">
<path d="M3.40903 8.51462C3.82541 7.87888 4.53438 7.45633 5.33338 7.45633C5.34839 7.45633 5.36339 7.45633 5.38215 7.45633C5.68975 7.46394 5.98234 7.52866 6.24867 7.64667C6.56377 6.40565 7.67787 5.48441 8.99828 5.48441H9.00578C9.76727 5.48441 10.48 5.79276 11.0202 6.34474C11.3803 6.714 11.6279 7.1594 11.7516 7.64286C12.0292 7.52485 12.3331 7.45633 12.6557 7.45633C12.6782 7.45633 12.7007 7.45633 12.7232 7.45633C13.3346 7.47536 13.9048 7.73042 14.3324 8.17962C14.4337 8.28621 14.5238 8.40042 14.6025 8.52223C14.8276 8.47274 14.9964 8.27098 14.9964 8.02735V6.16963C14.9964 5.89174 14.7751 5.66333 14.4975 5.66333H13.8523C13.691 5.66713 13.5409 5.60242 13.4284 5.48821C13.3159 5.37401 13.2521 5.22555 13.2521 5.06566C13.2521 4.90578 13.3121 4.7535 13.4209 4.6393L13.8861 4.16726C13.9761 4.07209 14.0249 3.94646 14.0249 3.81322C14.0249 3.67999 13.9723 3.55436 13.8748 3.45538L12.5769 2.13823C12.4831 2.04306 12.3593 1.98977 12.228 1.98977C12.093 1.98977 11.9692 2.04306 11.8754 2.14204L11.4178 2.60647C11.3053 2.72067 11.1515 2.78158 10.9939 2.78158C10.6676 2.77777 10.405 2.50369 10.4087 2.17249V1.5063C10.4087 1.22841 10.1837 1 9.90981 1H8.07549C7.80166 1 7.57659 1.2246 7.57659 1.5063V2.15346C7.57659 2.31335 7.51657 2.46942 7.40778 2.58363C7.29525 2.69783 7.14895 2.76255 6.9914 2.76255C6.83385 2.76255 6.68756 2.70164 6.57502 2.58743L6.11363 2.1192C5.91857 1.92505 5.60347 1.92505 5.40841 2.1192L4.13301 3.44396C4.03923 3.53913 3.98671 3.66857 3.98671 3.8018C3.98671 3.93504 4.03923 4.06067 4.13301 4.15964L4.5944 4.62407C4.70319 4.73828 4.76696 4.89435 4.76321 5.05424C4.76321 5.21413 4.69944 5.3664 4.58315 5.47679C4.47061 5.58719 4.32432 5.6481 4.16677 5.6481H3.49906C3.22523 5.6481 3.00391 5.87651 3.00391 6.1544V8.01974C3.00391 8.26718 3.18021 8.47274 3.41278 8.51462H3.40903Z" fill="white"/>
<path d="M5.56205 12.241C5.29197 12.241 5.02188 12.241 4.75555 12.241C3.98656 12.2524 3.35261 12.7016 3.10128 13.4135C3.06002 13.5277 3.03376 13.6419 3 13.7599V16.0669C3 16.0669 3.015 16.0859 3.015 16.0973C3.10503 16.6226 3.4914 16.9805 4.01282 16.9919C4.50797 17.0033 5.00313 16.9919 5.50203 16.9995C5.56205 16.9995 5.5733 16.9843 5.5583 16.9272C5.51704 16.7863 5.51329 16.6379 5.51329 16.4932C5.51329 15.4007 5.51329 14.3043 5.51329 13.2118C5.51329 12.9148 5.53954 12.6179 5.63707 12.3324C5.66708 12.2486 5.63707 12.241 5.5658 12.241H5.56205Z" fill="white"/>
<path d="M14.9775 13.7447C14.865 12.9986 14.321 12.4123 13.5933 12.2753C13.1994 12.1991 12.7981 12.2486 12.4004 12.2372C12.3292 12.2372 12.3517 12.2791 12.3629 12.3134C12.468 12.6293 12.4905 12.9567 12.4867 13.2841C12.4867 14.35 12.4867 15.4159 12.4867 16.4818C12.4867 16.6303 12.4867 16.7749 12.4417 16.9158C12.4229 16.9729 12.4379 16.9881 12.498 16.9881C12.9969 16.9881 13.4995 16.9881 13.9984 16.9805C14.3023 16.9767 14.5536 16.8396 14.7524 16.6074C14.8912 16.4475 14.9475 16.2534 15 16.0554V13.7714C15 13.7714 14.9812 13.7523 14.9775 13.7371V13.7447Z" fill="white"/>
<path d="M10.0447 11.3312C9.34698 11.3274 8.64551 11.3312 7.9478 11.3312C7.82026 11.3312 7.68897 11.3426 7.56518 11.3731C6.73992 11.5748 6.211 12.2562 6.20725 13.1204C6.20725 14.2739 6.20725 15.4273 6.20725 16.5808C6.20725 16.8739 6.33104 16.9995 6.61988 16.9995C7.41138 16.9995 8.20663 16.9995 8.99812 16.9995C9.78962 16.9995 10.5924 16.9995 11.3876 16.9995C11.6577 16.9995 11.789 16.8701 11.789 16.5922C11.789 15.4387 11.789 14.2853 11.789 13.1318C11.789 12.991 11.7815 12.8539 11.7477 12.7207C11.5564 11.8908 10.885 11.3426 10.0447 11.3388V11.3312Z" fill="white"/>
<path d="M9.00188 6.66787C7.85777 6.66787 6.91622 7.60815 6.91247 8.76541C6.90872 9.9303 7.85402 10.8972 8.99812 10.8934C10.1422 10.8934 11.0763 9.94172 11.0838 8.77303C11.0913 7.62338 10.1497 6.66787 9.00563 6.66406L9.00188 6.66787Z" fill="white"/>
<path d="M3.78024 10.212C3.76899 11.0723 4.46671 11.7842 5.32948 11.7994C6.16974 11.8147 6.87871 11.1028 6.89372 10.2272C6.90872 9.3707 6.22226 8.65502 5.36324 8.63598C4.49672 8.61695 3.78775 9.32121 3.77649 10.2082L3.78024 10.212Z" fill="white"/>
<path d="M11.1025 10.1815C11.0763 11.0495 11.7702 11.7766 12.6443 11.7994C13.4845 11.8185 14.1897 11.118 14.216 10.2348C14.2423 9.38973 13.552 8.66644 12.7005 8.63979C11.834 8.61314 11.1288 9.29456 11.1025 10.1815Z" fill="white"/>
</svg>
