<svg width="150" height="150" xmlns="http://www.w3.org/2000/svg"><g fill="none" fill-rule="evenodd"><path d="M0 0H150V150H0z"/><path d="M133.702 34c-7.118 0-13.106 4.891-14.796 11.476H97.612c-8.356 0-15.153 6.78-15.153 15.117 0 4.165-3.395 7.559-7.577 7.559h-3.037c-1.69-6.585-7.671-11.476-14.796-11.476-7.118 0-13.106 4.891-14.796 11.476H30.087c-1.69-6.585-7.671-11.476-14.796-11.476C6.862 56.676 0 63.515 0 71.93c0 8.409 6.855 15.255 15.291 15.255 7.118 0 13.106-4.891 14.796-11.476h12.18c1.69 6.585 7.672 11.476 14.796 11.476 7.074 0 13.019-4.818 14.76-11.338h3.067c4.174 0 7.576 3.387 7.576 7.559 0 8.336 6.797 15.117 15.153 15.117h4.961c1.69 6.585 7.671 11.476 14.796 11.476 8.429 0 15.291-6.84 15.291-15.255 0-8.41-6.855-15.255-15.291-15.255-7.118 0-13.106 4.89-14.796 11.475h-4.961c-4.174 0-7.576-3.386-7.576-7.558 0-4.55-2.04-8.634-5.238-11.403 3.205-2.777 5.238-6.854 5.238-11.404 0-4.164 3.394-7.558 7.576-7.558h21.294c1.69 6.584 7.671 11.476 14.796 11.476 8.429 0 15.291-6.84 15.291-15.255C148.993 40.846 142.13 34 133.702 34zM15.306 79.62c-4.255 0-7.715-3.452-7.715-7.696 0-4.245 3.46-7.697 7.715-7.697 4.254 0 7.715 3.452 7.715 7.697 0 4.244-3.46 7.696-7.715 7.696zm41.757 0c-4.254 0-7.714-3.452-7.714-7.696 0-4.245 3.46-7.697 7.714-7.697 4.255 0 7.715 3.452 7.715 7.697 0 4.244-3.46 7.696-7.715 7.696zm60.306 7.42c4.254 0 7.714 3.453 7.714 7.697 0 4.245-3.46 7.697-7.714 7.697-4.255 0-7.715-3.452-7.715-7.697.007-4.244 3.467-7.696 7.715-7.696zm16.333-30.088c-4.255 0-7.715-3.452-7.715-7.697 0-4.244 3.46-7.696 7.715-7.696 4.254 0 7.714 3.452 7.714 7.696 0 4.245-3.46 7.697-7.714 7.697z" fill="#FF6D5A" fill-rule="nonzero"/></g></svg>