<svg width="77" height="80" xmlns="http://www.w3.org/2000/svg"><g fill="none" fill-rule="evenodd"><path d="M4.815 3.451L49.096.181c5.44-.466 6.837-.151 10.257 2.334l14.135 9.955c2.331 1.712 3.108 2.178 3.108 4.042v54.594c0 3.422-1.243 5.446-5.594 5.755L19.58 79.973c-3.265.155-4.82-.312-6.53-2.49L2.64 63.951C.775 61.462 0 59.597 0 57.419V8.89c0-2.797 1.243-5.13 4.815-5.44z" fill="#000" fill-rule="nonzero"/><path d="M21.51 15.773c-4.232.285-5.192.35-7.595-1.608l-6.11-4.869c-.622-.63-.31-1.416 1.255-1.572l42.901-3.14c3.603-.315 5.48.942 6.888 2.041l7.358 5.34c.315.159 1.097 1.099.156 1.099l-44.305 2.671-.548.038zm-4.934 55.562V24.533c0-2.044.627-2.987 2.503-3.145l50.887-2.984c1.726-.156 2.505.942 2.505 2.984v46.49c0 2.044-.314 3.773-3.132 3.929l-48.695 2.827c-2.817.156-4.068-.783-4.068-3.299zm48.07-44.292c.311 1.413 0 2.827-1.412 2.989l-2.347.466v34.555c-2.038 1.099-3.914 1.726-5.482 1.726-2.505 0-3.132-.786-5.008-3.14L35.049 39.452v23.4l4.855 1.102s0 2.828-3.917 2.828l-10.8.627c-.314-.63 0-2.2 1.095-2.512l2.82-.784V33.172l-3.915-.318c-.314-1.414.468-3.455 2.662-3.614l11.587-.78 15.97 24.5V31.283l-4.071-.469c-.315-1.731.938-2.989 2.503-3.142l10.807-.63z" fill="#FFF"/></g></svg>