<svg xmlns="http://www.w3.org/2000/svg" viewBox="0 0 48 48">
  <path fill="currentColor" d="M32.07 27.28c-.21.012-.423.018-.636.018-5.725 0-10.431-4.362-10.975-9.944h-5.764l-.787-4.726c0-.591-.591-.788-.985-.788H8.985c-.591 0-.985.394-.985.985 0 .59.394.984.985.984h3.15l2.954 17.526c0 .591.591.788.985.788h18.51c.591 0 .985-.394.985-.985 0-.59-.394-1.181-.984-1.181H17.058l-.393-1.97H31.04c.394 0 .788-.196.985-.59l.045-.117ZM22.375 36.652c0 1.773-1.575 3.348-3.347 3.348-1.773 0-3.348-1.575-3.348-3.348 0-1.772 1.575-3.347 3.348-3.347 1.772 0 3.347 1.575 3.347 3.347ZM28.874 33.305c-1.772 0-3.348 1.575-3.348 3.347 0 1.773 1.576 3.348 3.348 3.348 1.772 0 3.348-1.575 3.348-3.348 0-1.772-1.576-3.347-3.348-3.347Z"/>
  <path fill="currentColor" fill-rule="evenodd" d="M31.434 24.541a8.27 8.27 0 1 0 0-16.54 8.27 8.27 0 0 0 0 16.54Zm-2.459-5.791v1.065h4.986v-1.209h-2.937v-.047l1.021-1c.48-.438.853-.812 1.117-1.124.264-.314.447-.6.55-.857.104-.258.157-.518.157-.782 0-.403-.104-.76-.311-1.073a2.075 2.075 0 0 0-.87-.73c-.372-.178-.808-.267-1.309-.267-.487 0-.917.092-1.29.277a2.075 2.075 0 0 0-.871.782c-.208.337-.311.734-.311 1.191h1.403c0-.223.044-.415.13-.577a.895.895 0 0 1 .369-.372c.16-.086.346-.13.56-.13.205 0 .388.041.55.123.161.08.289.195.382.345.094.148.14.325.14.53 0 .184-.037.356-.113.515a2.1 2.1 0 0 1-.33.482 9.42 9.42 0 0 1-.533.553l-2.49 2.305Z" clip-rule="evenodd"/>
</svg>
